<svg width="639" height="425" viewBox="0 0 639 425" fill="none" xmlns="http://www.w3.org/2000/svg">
<path d="M3 42H484C489.523 42 494 46.4772 494 52V109C494 114.523 489.523 119 484 119H13C7.47716 119 3 114.523 3 109V42Z" fill="#ECF0F3"/>
<path d="M0.0419922 260H106C111.523 260 116 264.477 116 270V301C116 306.523 111.523 311 106 311H10.042C4.51915 311 0.0419922 306.523 0.0419922 301V260Z" fill="#ECF0F3"/>
<path d="M638.734 169H520C514.478 169 510 173.477 510 179V200C510 205.523 514.478 210 520 210H628.734C634.257 210 638.734 205.523 638.734 200V169Z" fill="#337AB7"/>
<path d="M636.52 358H392C386.477 358 382 362.477 382 368V389C382 394.523 386.477 399 392 399H626.52C632.042 399 636.52 394.523 636.52 389V358Z" fill="#337AB7"/>
<path d="M5.94233 132.32V131.324H8.19833V140H7.09433V132.32H5.94233ZM9.78608 132.32V131.324H12.0421V140H10.9381V132.32H9.78608ZM14.4458 140.072C14.2378 140.072 14.0618 140 13.9178 139.856C13.7738 139.712 13.7018 139.536 13.7018 139.328C13.7018 139.12 13.7738 138.944 13.9178 138.8C14.0618 138.656 14.2378 138.584 14.4458 138.584C14.6458 138.584 14.8138 138.656 14.9498 138.8C15.0938 138.944 15.1658 139.12 15.1658 139.328C15.1658 139.536 15.0938 139.712 14.9498 139.856C14.8138 140 14.6458 140.072 14.4458 140.072ZM14.4458 134.936C14.2378 134.936 14.0618 134.864 13.9178 134.72C13.7738 134.576 13.7018 134.4 13.7018 134.192C13.7018 133.984 13.7738 133.808 13.9178 133.664C14.0618 133.52 14.2378 133.448 14.4458 133.448C14.6458 133.448 14.8138 133.52 14.9498 133.664C15.0938 133.808 15.1658 133.984 15.1658 134.192C15.1658 134.4 15.0938 134.576 14.9498 134.72C14.8138 134.864 14.6458 134.936 14.4458 134.936ZM16.2085 138.068V137.24L20.4205 131.408H21.7285V137.12H22.9285V138.068H21.7285V140H20.6485V138.068H16.2085ZM20.6965 132.548L17.4685 137.12H20.6965V132.548ZM28.8554 133.388C28.6794 132.5 28.1314 132.056 27.2114 132.056C26.4994 132.056 25.9674 132.332 25.6154 132.884C25.2634 133.428 25.0914 134.328 25.0994 135.584C25.2834 135.168 25.5874 134.844 26.0114 134.612C26.4434 134.372 26.9234 134.252 27.4514 134.252C28.2754 134.252 28.9314 134.508 29.4194 135.02C29.9154 135.532 30.1634 136.24 30.1634 137.144C30.1634 137.688 30.0554 138.176 29.8394 138.608C29.6314 139.04 29.3114 139.384 28.8794 139.64C28.4554 139.896 27.9394 140.024 27.3314 140.024C26.5074 140.024 25.8634 139.84 25.3994 139.472C24.9354 139.104 24.6114 138.596 24.4274 137.948C24.2434 137.3 24.1514 136.5 24.1514 135.548C24.1514 132.612 25.1754 131.144 27.2234 131.144C28.0074 131.144 28.6234 131.356 29.0714 131.78C29.5194 132.204 29.7834 132.74 29.8634 133.388H28.8554ZM27.2234 135.176C26.8794 135.176 26.5554 135.248 26.2514 135.392C25.9474 135.528 25.6994 135.74 25.5074 136.028C25.3234 136.308 25.2314 136.652 25.2314 137.06C25.2314 137.668 25.4074 138.164 25.7594 138.548C26.1114 138.924 26.6154 139.112 27.2714 139.112C27.8314 139.112 28.2754 138.94 28.6034 138.596C28.9394 138.244 29.1074 137.772 29.1074 137.18C29.1074 136.556 28.9474 136.068 28.6274 135.716C28.3074 135.356 27.8394 135.176 27.2234 135.176ZM39.9598 138.14H36.3118L35.6398 140H34.4878L37.5118 131.684H38.7718L41.7838 140H40.6318L39.9598 138.14ZM39.6478 137.252L38.1358 133.028L36.6238 137.252H39.6478ZM51.5857 131.696V140H50.4937V133.808L47.7337 140H46.9657L44.1937 133.796V140H43.1017V131.696H44.2777L47.3497 138.56L50.4217 131.696H51.5857Z" fill="#797C83"/>
<path d="M296.786 4.636L294.062 9.844V13H292.97V9.844L290.234 4.636H291.446L293.51 8.872L295.574 4.636H296.786ZM303.938 9.46C303.938 9.668 303.926 9.888 303.902 10.12H298.646C298.686 10.768 298.906 11.276 299.306 11.644C299.714 12.004 300.206 12.184 300.782 12.184C301.254 12.184 301.646 12.076 301.958 11.86C302.278 11.636 302.502 11.34 302.63 10.972H303.806C303.63 11.604 303.278 12.12 302.75 12.52C302.222 12.912 301.566 13.108 300.782 13.108C300.158 13.108 299.598 12.968 299.102 12.688C298.614 12.408 298.23 12.012 297.95 11.5C297.67 10.98 297.53 10.38 297.53 9.7C297.53 9.02 297.666 8.424 297.938 7.912C298.21 7.4 298.59 7.008 299.078 6.736C299.574 6.456 300.142 6.316 300.782 6.316C301.406 6.316 301.958 6.452 302.438 6.724C302.918 6.996 303.286 7.372 303.542 7.852C303.806 8.324 303.938 8.86 303.938 9.46ZM302.81 9.232C302.81 8.816 302.718 8.46 302.534 8.164C302.35 7.86 302.098 7.632 301.778 7.48C301.466 7.32 301.118 7.24 300.734 7.24C300.182 7.24 299.71 7.416 299.318 7.768C298.934 8.12 298.714 8.608 298.658 9.232H302.81ZM307.707 13.108C307.203 13.108 306.751 13.024 306.351 12.856C305.951 12.68 305.635 12.44 305.403 12.136C305.171 11.824 305.043 11.468 305.019 11.068H306.147C306.179 11.396 306.331 11.664 306.603 11.872C306.883 12.08 307.247 12.184 307.695 12.184C308.111 12.184 308.439 12.092 308.679 11.908C308.919 11.724 309.039 11.492 309.039 11.212C309.039 10.924 308.911 10.712 308.655 10.576C308.399 10.432 308.003 10.292 307.467 10.156C306.979 10.028 306.579 9.9 306.267 9.772C305.963 9.636 305.699 9.44 305.475 9.184C305.259 8.92 305.151 8.576 305.151 8.152C305.151 7.816 305.251 7.508 305.451 7.228C305.651 6.948 305.935 6.728 306.303 6.568C306.671 6.4 307.091 6.316 307.563 6.316C308.291 6.316 308.879 6.5 309.327 6.868C309.775 7.236 310.015 7.74 310.047 8.38H308.955C308.931 8.036 308.791 7.76 308.535 7.552C308.287 7.344 307.951 7.24 307.527 7.24C307.135 7.24 306.823 7.324 306.591 7.492C306.359 7.66 306.243 7.88 306.243 8.152C306.243 8.368 306.311 8.548 306.447 8.692C306.591 8.828 306.767 8.94 306.975 9.028C307.191 9.108 307.487 9.2 307.863 9.304C308.335 9.432 308.719 9.56 309.015 9.688C309.311 9.808 309.563 9.992 309.771 10.24C309.987 10.488 310.099 10.812 310.107 11.212C310.107 11.572 310.007 11.896 309.807 12.184C309.607 12.472 309.323 12.7 308.955 12.868C308.595 13.028 308.179 13.108 307.707 13.108ZM312.981 7.324V11.2C312.981 11.52 313.049 11.748 313.185 11.884C313.321 12.012 313.557 12.076 313.893 12.076H314.697V13H313.713C313.105 13 312.649 12.86 312.345 12.58C312.041 12.3 311.889 11.84 311.889 11.2V7.324H311.037V6.424H311.889V4.768H312.981V6.424H314.697V7.324H312.981ZM322.02 9.46C322.02 9.668 322.008 9.888 321.984 10.12H316.728C316.768 10.768 316.988 11.276 317.388 11.644C317.796 12.004 318.288 12.184 318.864 12.184C319.336 12.184 319.728 12.076 320.04 11.86C320.36 11.636 320.584 11.34 320.712 10.972H321.888C321.712 11.604 321.36 12.12 320.832 12.52C320.304 12.912 319.648 13.108 318.864 13.108C318.24 13.108 317.68 12.968 317.184 12.688C316.696 12.408 316.312 12.012 316.032 11.5C315.752 10.98 315.612 10.38 315.612 9.7C315.612 9.02 315.748 8.424 316.02 7.912C316.292 7.4 316.672 7.008 317.16 6.736C317.656 6.456 318.224 6.316 318.864 6.316C319.488 6.316 320.04 6.452 320.52 6.724C321 6.996 321.368 7.372 321.624 7.852C321.888 8.324 322.02 8.86 322.02 9.46ZM320.892 9.232C320.892 8.816 320.8 8.46 320.616 8.164C320.432 7.86 320.18 7.632 319.86 7.48C319.548 7.32 319.2 7.24 318.816 7.24C318.264 7.24 317.792 7.416 317.4 7.768C317.016 8.12 316.796 8.608 316.74 9.232H320.892ZM324.553 7.492C324.745 7.116 325.017 6.824 325.369 6.616C325.729 6.408 326.165 6.304 326.677 6.304V7.432H326.389C325.165 7.432 324.553 8.096 324.553 9.424V13H323.461V6.424H324.553V7.492ZM327.53 9.688C327.53 9.016 327.666 8.428 327.938 7.924C328.21 7.412 328.582 7.016 329.054 6.736C329.534 6.456 330.07 6.316 330.662 6.316C331.174 6.316 331.65 6.436 332.09 6.676C332.53 6.908 332.866 7.216 333.098 7.6V4.12H334.202V13H333.098V11.764C332.882 12.156 332.562 12.48 332.138 12.736C331.714 12.984 331.218 13.108 330.65 13.108C330.066 13.108 329.534 12.964 329.054 12.676C328.582 12.388 328.21 11.984 327.938 11.464C327.666 10.944 327.53 10.352 327.53 9.688ZM333.098 9.7C333.098 9.204 332.998 8.772 332.798 8.404C332.598 8.036 332.326 7.756 331.982 7.564C331.646 7.364 331.274 7.264 330.866 7.264C330.458 7.264 330.086 7.36 329.75 7.552C329.414 7.744 329.146 8.024 328.946 8.392C328.746 8.76 328.646 9.192 328.646 9.688C328.646 10.192 328.746 10.632 328.946 11.008C329.146 11.376 329.414 11.66 329.75 11.86C330.086 12.052 330.458 12.148 330.866 12.148C331.274 12.148 331.646 12.052 331.982 11.86C332.326 11.66 332.598 11.376 332.798 11.008C332.998 10.632 333.098 10.196 333.098 9.7ZM335.639 9.688C335.639 9.016 335.775 8.428 336.047 7.924C336.319 7.412 336.691 7.016 337.163 6.736C337.643 6.456 338.175 6.316 338.759 6.316C339.335 6.316 339.835 6.44 340.259 6.688C340.683 6.936 340.999 7.248 341.207 7.624V6.424H342.311V13H341.207V11.776C340.991 12.16 340.667 12.48 340.235 12.736C339.811 12.984 339.315 13.108 338.747 13.108C338.163 13.108 337.635 12.964 337.163 12.676C336.691 12.388 336.319 11.984 336.047 11.464C335.775 10.944 335.639 10.352 335.639 9.688ZM341.207 9.7C341.207 9.204 341.107 8.772 340.907 8.404C340.707 8.036 340.435 7.756 340.091 7.564C339.755 7.364 339.383 7.264 338.975 7.264C338.567 7.264 338.195 7.36 337.859 7.552C337.523 7.744 337.255 8.024 337.055 8.392C336.855 8.76 336.755 9.192 336.755 9.688C336.755 10.192 336.855 10.632 337.055 11.008C337.255 11.376 337.523 11.66 337.859 11.86C338.195 12.052 338.567 12.148 338.975 12.148C339.383 12.148 339.755 12.052 340.091 11.86C340.435 11.66 340.707 11.376 340.907 11.008C341.107 10.632 341.207 10.196 341.207 9.7ZM349.82 6.424L345.86 16.096H344.732L346.028 12.928L343.376 6.424H344.588L346.652 11.752L348.692 6.424H349.82Z" fill="#797C83"/>
<path d="M588.942 223.32V222.324H591.198V231H590.094V223.32H588.942ZM592.786 223.32V222.324H595.042V231H593.938V223.32H592.786ZM597.446 231.072C597.238 231.072 597.062 231 596.918 230.856C596.774 230.712 596.702 230.536 596.702 230.328C596.702 230.12 596.774 229.944 596.918 229.8C597.062 229.656 597.238 229.584 597.446 229.584C597.646 229.584 597.814 229.656 597.95 229.8C598.094 229.944 598.166 230.12 598.166 230.328C598.166 230.536 598.094 230.712 597.95 230.856C597.814 231 597.646 231.072 597.446 231.072ZM597.446 225.936C597.238 225.936 597.062 225.864 596.918 225.72C596.774 225.576 596.702 225.4 596.702 225.192C596.702 224.984 596.774 224.808 596.918 224.664C597.062 224.52 597.238 224.448 597.446 224.448C597.646 224.448 597.814 224.52 597.95 224.664C598.094 224.808 598.166 224.984 598.166 225.192C598.166 225.4 598.094 225.576 597.95 225.72C597.814 225.864 597.646 225.936 597.446 225.936ZM599.209 229.068V228.24L603.421 222.408H604.729V228.12H605.929V229.068H604.729V231H603.649V229.068H599.209ZM603.697 223.548L600.469 228.12H603.697V223.548ZM611.855 224.388C611.679 223.5 611.131 223.056 610.211 223.056C609.499 223.056 608.967 223.332 608.615 223.884C608.263 224.428 608.091 225.328 608.099 226.584C608.283 226.168 608.587 225.844 609.011 225.612C609.443 225.372 609.923 225.252 610.451 225.252C611.275 225.252 611.931 225.508 612.419 226.02C612.915 226.532 613.163 227.24 613.163 228.144C613.163 228.688 613.055 229.176 612.839 229.608C612.631 230.04 612.311 230.384 611.879 230.64C611.455 230.896 610.939 231.024 610.331 231.024C609.507 231.024 608.863 230.84 608.399 230.472C607.935 230.104 607.611 229.596 607.427 228.948C607.243 228.3 607.151 227.5 607.151 226.548C607.151 223.612 608.175 222.144 610.223 222.144C611.007 222.144 611.623 222.356 612.071 222.78C612.519 223.204 612.783 223.74 612.863 224.388H611.855ZM610.223 226.176C609.879 226.176 609.555 226.248 609.251 226.392C608.947 226.528 608.699 226.74 608.507 227.028C608.323 227.308 608.231 227.652 608.231 228.06C608.231 228.668 608.407 229.164 608.759 229.548C609.111 229.924 609.615 230.112 610.271 230.112C610.831 230.112 611.275 229.94 611.603 229.596C611.939 229.244 612.107 228.772 612.107 228.18C612.107 227.556 611.947 227.068 611.627 226.716C611.307 226.356 610.839 226.176 610.223 226.176ZM622.96 229.14H619.312L618.64 231H617.488L620.512 222.684H621.772L624.784 231H623.632L622.96 229.14ZM622.648 228.252L621.136 224.028L619.624 228.252H622.648ZM634.586 222.696V231H633.494V224.808L630.734 231H629.966L627.194 224.796V231H626.102V222.696H627.278L630.35 229.56L633.422 222.696H634.586Z" fill="#797C83"/>
<path d="M589.481 412.32V411.324H591.737V420H590.633V412.32H589.481ZM593.325 412.32V411.324H595.581V420H594.477V412.32H593.325ZM597.985 420.072C597.777 420.072 597.601 420 597.457 419.856C597.313 419.712 597.241 419.536 597.241 419.328C597.241 419.12 597.313 418.944 597.457 418.8C597.601 418.656 597.777 418.584 597.985 418.584C598.185 418.584 598.353 418.656 598.489 418.8C598.633 418.944 598.705 419.12 598.705 419.328C598.705 419.536 598.633 419.712 598.489 419.856C598.353 420 598.185 420.072 597.985 420.072ZM597.985 414.936C597.777 414.936 597.601 414.864 597.457 414.72C597.313 414.576 597.241 414.4 597.241 414.192C597.241 413.984 597.313 413.808 597.457 413.664C597.601 413.52 597.777 413.448 597.985 413.448C598.185 413.448 598.353 413.52 598.489 413.664C598.633 413.808 598.705 413.984 598.705 414.192C598.705 414.4 598.633 414.576 598.489 414.72C598.353 414.864 598.185 414.936 597.985 414.936ZM605.544 412.272H601.332V415.008C601.516 414.752 601.788 414.544 602.148 414.384C602.508 414.216 602.896 414.132 603.312 414.132C603.976 414.132 604.516 414.272 604.932 414.552C605.348 414.824 605.644 415.18 605.82 415.62C606.004 416.052 606.096 416.512 606.096 417C606.096 417.576 605.988 418.092 605.772 418.548C605.556 419.004 605.224 419.364 604.776 419.628C604.336 419.892 603.788 420.024 603.132 420.024C602.292 420.024 601.612 419.808 601.092 419.376C600.572 418.944 600.256 418.368 600.144 417.648H601.212C601.316 418.104 601.536 418.46 601.872 418.716C602.208 418.972 602.632 419.1 603.144 419.1C603.776 419.1 604.252 418.912 604.572 418.536C604.892 418.152 605.052 417.648 605.052 417.024C605.052 416.4 604.892 415.92 604.572 415.584C604.252 415.24 603.78 415.068 603.156 415.068C602.732 415.068 602.36 415.172 602.04 415.38C601.728 415.58 601.5 415.856 601.356 416.208H600.324V411.312H605.544V412.272ZM612.887 412.176L609.551 420H608.447L611.831 412.284H607.199V411.348H612.887V412.176ZM622.421 418.14H618.773L618.101 420H616.949L619.973 411.684H621.233L624.245 420H623.093L622.421 418.14ZM622.109 417.252L620.597 413.028L619.085 417.252H622.109ZM634.047 411.696V420H632.955V413.808L630.195 420H629.427L626.655 413.796V420H625.563V411.696H626.739L629.811 418.56L632.883 411.696H634.047Z" fill="#797C83"/>
<path d="M5.80561 324.32V323.324H8.06161V332H6.95761V324.32H5.80561ZM9.64936 324.32V323.324H11.9054V332H10.8014V324.32H9.64936ZM14.3091 332.072C14.1011 332.072 13.9251 332 13.7811 331.856C13.6371 331.712 13.5651 331.536 13.5651 331.328C13.5651 331.12 13.6371 330.944 13.7811 330.8C13.9251 330.656 14.1011 330.584 14.3091 330.584C14.5091 330.584 14.6771 330.656 14.8131 330.8C14.9571 330.944 15.0291 331.12 15.0291 331.328C15.0291 331.536 14.9571 331.712 14.8131 331.856C14.6771 332 14.5091 332.072 14.3091 332.072ZM14.3091 326.936C14.1011 326.936 13.9251 326.864 13.7811 326.72C13.6371 326.576 13.5651 326.4 13.5651 326.192C13.5651 325.984 13.6371 325.808 13.7811 325.664C13.9251 325.52 14.1011 325.448 14.3091 325.448C14.5091 325.448 14.6771 325.52 14.8131 325.664C14.9571 325.808 15.0291 325.984 15.0291 326.192C15.0291 326.4 14.9571 326.576 14.8131 326.72C14.6771 326.864 14.5091 326.936 14.3091 326.936ZM21.8678 324.272H17.6558V327.008C17.8398 326.752 18.1118 326.544 18.4718 326.384C18.8318 326.216 19.2198 326.132 19.6358 326.132C20.2998 326.132 20.8398 326.272 21.2558 326.552C21.6718 326.824 21.9678 327.18 22.1438 327.62C22.3278 328.052 22.4198 328.512 22.4198 329C22.4198 329.576 22.3118 330.092 22.0958 330.548C21.8798 331.004 21.5478 331.364 21.0998 331.628C20.6598 331.892 20.1118 332.024 19.4558 332.024C18.6158 332.024 17.9358 331.808 17.4158 331.376C16.8958 330.944 16.5798 330.368 16.4678 329.648H17.5358C17.6398 330.104 17.8598 330.46 18.1958 330.716C18.5318 330.972 18.9558 331.1 19.4678 331.1C20.0998 331.1 20.5758 330.912 20.8958 330.536C21.2158 330.152 21.3758 329.648 21.3758 329.024C21.3758 328.4 21.2158 327.92 20.8958 327.584C20.5758 327.24 20.1038 327.068 19.4798 327.068C19.0558 327.068 18.6838 327.172 18.3638 327.38C18.0518 327.58 17.8238 327.856 17.6798 328.208H16.6478V323.312H21.8678V324.272ZM23.739 331.124C24.755 330.308 25.551 329.64 26.127 329.12C26.703 328.592 27.187 328.044 27.579 327.476C27.979 326.9 28.179 326.336 28.179 325.784C28.179 325.264 28.051 324.856 27.795 324.56C27.547 324.256 27.143 324.104 26.583 324.104C26.039 324.104 25.615 324.276 25.311 324.62C25.015 324.956 24.855 325.408 24.831 325.976H23.775C23.807 325.08 24.079 324.388 24.591 323.9C25.103 323.412 25.763 323.168 26.571 323.168C27.395 323.168 28.047 323.396 28.527 323.852C29.015 324.308 29.259 324.936 29.259 325.736C29.259 326.4 29.059 327.048 28.659 327.68C28.267 328.304 27.819 328.856 27.315 329.336C26.811 329.808 26.167 330.36 25.383 330.992H29.511V331.904H23.739V331.124ZM39.0965 330.14H35.4485L34.7765 332H33.6245L36.6485 323.684H37.9085L40.9205 332H39.7685L39.0965 330.14ZM38.7845 329.252L37.2725 325.028L35.7605 329.252H38.7845ZM50.7225 323.696V332H49.6305V325.808L46.8705 332H46.1025L43.3305 325.796V332H42.2385V323.696H43.4145L46.4865 330.56L49.5585 323.696H50.7225Z" fill="#797C83"/>
<path d="M16.688 59.848V71H15.232V59.848H16.688ZM22.7375 63.432H20.8975V71H19.4415V63.432H18.3055V62.232H19.4415V61.608C19.4415 60.6267 19.6922 59.912 20.1935 59.464C20.7055 59.0053 21.5215 58.776 22.6415 58.776V59.992C22.0015 59.992 21.5482 60.12 21.2815 60.376C21.0255 60.6213 20.8975 61.032 20.8975 61.608V62.232H22.7375V63.432ZM36.2528 62.232L30.9728 75.128H29.4688L31.1968 70.904L27.6608 62.232H29.2768L32.0288 69.336L34.7488 62.232H36.2528ZM41.5404 71.144C40.719 71.144 39.9724 70.9573 39.3004 70.584C38.639 70.2107 38.1164 69.6827 37.7324 69C37.359 68.3067 37.1724 67.5067 37.1724 66.6C37.1724 65.704 37.3644 64.9147 37.7484 64.232C38.143 63.5387 38.6764 63.0107 39.3484 62.648C40.0204 62.2747 40.7724 62.088 41.6044 62.088C42.4364 62.088 43.1884 62.2747 43.8604 62.648C44.5324 63.0107 45.0604 63.5333 45.4444 64.216C45.839 64.8987 46.0364 65.6933 46.0364 66.6C46.0364 67.5067 45.8337 68.3067 45.4284 69C45.0337 69.6827 44.495 70.2107 43.8124 70.584C43.1297 70.9573 42.3724 71.144 41.5404 71.144ZM41.5404 69.864C42.063 69.864 42.5537 69.7413 43.0124 69.496C43.471 69.2507 43.839 68.8827 44.1164 68.392C44.4044 67.9013 44.5484 67.304 44.5484 66.6C44.5484 65.896 44.4097 65.2987 44.1324 64.808C43.855 64.3173 43.4924 63.9547 43.0444 63.72C42.5964 63.4747 42.111 63.352 41.5884 63.352C41.055 63.352 40.5644 63.4747 40.1164 63.72C39.679 63.9547 39.327 64.3173 39.0604 64.808C38.7937 65.2987 38.6604 65.896 38.6604 66.6C38.6604 67.3147 38.7884 67.9173 39.0444 68.408C39.311 68.8987 39.663 69.2667 40.1004 69.512C40.5377 69.7467 41.0177 69.864 41.5404 69.864ZM55.7268 62.232V71H54.2708V69.704C53.9934 70.152 53.6041 70.504 53.1028 70.76C52.6121 71.0053 52.0681 71.128 51.4708 71.128C50.7881 71.128 50.1748 70.9893 49.6308 70.712C49.0868 70.424 48.6548 69.9973 48.3348 69.432C48.0254 68.8667 47.8708 68.1787 47.8708 67.368V62.232H49.3108V67.176C49.3108 68.04 49.5294 68.7067 49.9668 69.176C50.4041 69.6347 51.0014 69.864 51.7588 69.864C52.5374 69.864 53.1508 69.624 53.5988 69.144C54.0468 68.664 54.2708 67.9653 54.2708 67.048V62.232H55.7268ZM63.2028 60.808C62.9254 60.808 62.6908 60.712 62.4988 60.52C62.3068 60.328 62.2108 60.0933 62.2108 59.816C62.2108 59.5387 62.3068 59.304 62.4988 59.112C62.6908 58.92 62.9254 58.824 63.2028 58.824C63.4694 58.824 63.6934 58.92 63.8748 59.112C64.0668 59.304 64.1628 59.5387 64.1628 59.816C64.1628 60.0933 64.0668 60.328 63.8748 60.52C63.6934 60.712 63.4694 60.808 63.2028 60.808ZM63.9068 62.232V71H62.4508V62.232H63.9068ZM70.6603 62.072C71.7269 62.072 72.5909 62.3973 73.2523 63.048C73.9136 63.688 74.2443 64.616 74.2443 65.832V71H72.8043V66.04C72.8043 65.1653 72.5856 64.4987 72.1483 64.04C71.7109 63.5707 71.1136 63.336 70.3563 63.336C69.5883 63.336 68.9749 63.576 68.5163 64.056C68.0683 64.536 67.8443 65.2347 67.8443 66.152V71H66.3883V62.232H67.8443V63.48C68.1323 63.032 68.5216 62.6853 69.0123 62.44C69.5136 62.1947 70.0629 62.072 70.6603 62.072ZM78.3986 63.432V68.6C78.3986 69.0267 78.4893 69.3307 78.6706 69.512C78.852 69.6827 79.1666 69.768 79.6146 69.768H80.6866V71H79.3746C78.564 71 77.956 70.8133 77.5506 70.44C77.1453 70.0667 76.9426 69.4533 76.9426 68.6V63.432H75.8066V62.232H76.9426V60.024H78.3986V62.232H80.6866V63.432H78.3986ZM90.4508 66.28C90.4508 66.5573 90.4348 66.8507 90.4028 67.16H83.3948C83.4481 68.024 83.7414 68.7013 84.2748 69.192C84.8188 69.672 85.4748 69.912 86.2428 69.912C86.8721 69.912 87.3948 69.768 87.8108 69.48C88.2374 69.1813 88.5361 68.7867 88.7068 68.296H90.2748C90.0401 69.1387 89.5708 69.8267 88.8668 70.36C88.1628 70.8827 87.2881 71.144 86.2428 71.144C85.4108 71.144 84.6641 70.9573 84.0028 70.584C83.3521 70.2107 82.8401 69.6827 82.4668 69C82.0934 68.3067 81.9068 67.5067 81.9068 66.6C81.9068 65.6933 82.0881 64.8987 82.4508 64.216C82.8134 63.5333 83.3201 63.0107 83.9708 62.648C84.6321 62.2747 85.3894 62.088 86.2428 62.088C87.0748 62.088 87.8108 62.2693 88.4508 62.632C89.0908 62.9947 89.5814 63.496 89.9228 64.136C90.2748 64.7653 90.4508 65.48 90.4508 66.28ZM88.9468 65.976C88.9468 65.4213 88.8241 64.9467 88.5788 64.552C88.3334 64.1467 87.9974 63.8427 87.5708 63.64C87.1548 63.4267 86.6908 63.32 86.1788 63.32C85.4428 63.32 84.8134 63.5547 84.2908 64.024C83.7788 64.4933 83.4854 65.144 83.4108 65.976H88.9468ZM96.6446 62.072C97.7113 62.072 98.5753 62.3973 99.2366 63.048C99.898 63.688 100.229 64.616 100.229 65.832V71H98.7886V66.04C98.7886 65.1653 98.57 64.4987 98.1326 64.04C97.6953 63.5707 97.098 63.336 96.3406 63.336C95.5726 63.336 94.9593 63.576 94.5006 64.056C94.0526 64.536 93.8286 65.2347 93.8286 66.152V71H92.3726V62.232H93.8286V63.48C94.1166 63.032 94.506 62.6853 94.9966 62.44C95.498 62.1947 96.0473 62.072 96.6446 62.072ZM102.063 66.584C102.063 65.688 102.244 64.904 102.607 64.232C102.97 63.5493 103.466 63.0213 104.095 62.648C104.735 62.2747 105.45 62.088 106.239 62.088C106.922 62.088 107.556 62.248 108.143 62.568C108.73 62.8773 109.178 63.288 109.487 63.8V59.16H110.959V71H109.487V69.352C109.199 69.8747 108.772 70.3067 108.207 70.648C107.642 70.9787 106.98 71.144 106.223 71.144C105.444 71.144 104.735 70.952 104.095 70.568C103.466 70.184 102.97 69.6453 102.607 68.952C102.244 68.2587 102.063 67.4693 102.063 66.584ZM109.487 66.6C109.487 65.9387 109.354 65.3627 109.087 64.872C108.82 64.3813 108.458 64.008 107.999 63.752C107.551 63.4853 107.055 63.352 106.511 63.352C105.967 63.352 105.471 63.48 105.023 63.736C104.575 63.992 104.218 64.3653 103.951 64.856C103.684 65.3467 103.551 65.9227 103.551 66.584C103.551 67.256 103.684 67.8427 103.951 68.344C104.218 68.8347 104.575 69.2133 105.023 69.48C105.471 69.736 105.967 69.864 106.511 69.864C107.055 69.864 107.551 69.736 107.999 69.48C108.458 69.2133 108.82 68.8347 109.087 68.344C109.354 67.8427 109.487 67.2613 109.487 66.6ZM119.461 63.432V68.6C119.461 69.0267 119.552 69.3307 119.733 69.512C119.914 69.6827 120.229 69.768 120.677 69.768H121.749V71H120.437C119.626 71 119.018 70.8133 118.613 70.44C118.208 70.0667 118.005 69.4533 118.005 68.6V63.432H116.869V62.232H118.005V60.024H119.461V62.232H121.749V63.432H119.461ZM127.337 71.144C126.516 71.144 125.769 70.9573 125.097 70.584C124.436 70.2107 123.913 69.6827 123.529 69C123.156 68.3067 122.969 67.5067 122.969 66.6C122.969 65.704 123.161 64.9147 123.545 64.232C123.94 63.5387 124.473 63.0107 125.145 62.648C125.817 62.2747 126.569 62.088 127.401 62.088C128.233 62.088 128.985 62.2747 129.657 62.648C130.329 63.0107 130.857 63.5333 131.241 64.216C131.636 64.8987 131.833 65.6933 131.833 66.6C131.833 67.5067 131.631 68.3067 131.225 69C130.831 69.6827 130.292 70.2107 129.609 70.584C128.927 70.9573 128.169 71.144 127.337 71.144ZM127.337 69.864C127.86 69.864 128.351 69.7413 128.809 69.496C129.268 69.2507 129.636 68.8827 129.913 68.392C130.201 67.9013 130.345 67.304 130.345 66.6C130.345 65.896 130.207 65.2987 129.929 64.808C129.652 64.3173 129.289 63.9547 128.841 63.72C128.393 63.4747 127.908 63.352 127.385 63.352C126.852 63.352 126.361 63.4747 125.913 63.72C125.476 63.9547 125.124 64.3173 124.857 64.808C124.591 65.2987 124.457 65.896 124.457 66.6C124.457 67.3147 124.585 67.9173 124.841 68.408C125.108 68.8987 125.46 69.2667 125.897 69.512C126.335 69.7467 126.815 69.864 127.337 69.864ZM141.117 71.144C140.445 71.144 139.843 71.032 139.309 70.808C138.776 70.5733 138.355 70.2533 138.045 69.848C137.736 69.432 137.565 68.9573 137.533 68.424H139.037C139.08 68.8613 139.283 69.2187 139.645 69.496C140.019 69.7733 140.504 69.912 141.101 69.912C141.656 69.912 142.093 69.7893 142.413 69.544C142.733 69.2987 142.893 68.9893 142.893 68.616C142.893 68.232 142.723 67.9493 142.381 67.768C142.04 67.576 141.512 67.3893 140.797 67.208C140.147 67.0373 139.613 66.8667 139.197 66.696C138.792 66.5147 138.44 66.2533 138.141 65.912C137.853 65.56 137.709 65.1013 137.709 64.536C137.709 64.088 137.843 63.6773 138.109 63.304C138.376 62.9307 138.755 62.6373 139.245 62.424C139.736 62.2 140.296 62.088 140.925 62.088C141.896 62.088 142.68 62.3333 143.277 62.824C143.875 63.3147 144.195 63.9867 144.237 64.84H142.781C142.749 64.3813 142.563 64.0133 142.221 63.736C141.891 63.4587 141.443 63.32 140.877 63.32C140.355 63.32 139.939 63.432 139.629 63.656C139.32 63.88 139.165 64.1733 139.165 64.536C139.165 64.824 139.256 65.064 139.437 65.256C139.629 65.4373 139.864 65.5867 140.141 65.704C140.429 65.8107 140.824 65.9333 141.325 66.072C141.955 66.2427 142.467 66.4133 142.861 66.584C143.256 66.744 143.592 66.9893 143.869 67.32C144.157 67.6507 144.307 68.0827 144.317 68.616C144.317 69.096 144.184 69.528 143.917 69.912C143.651 70.296 143.272 70.6 142.781 70.824C142.301 71.0373 141.747 71.144 141.117 71.144ZM154.373 66.28C154.373 66.5573 154.357 66.8507 154.325 67.16H147.317C147.37 68.024 147.663 68.7013 148.197 69.192C148.741 69.672 149.397 69.912 150.165 69.912C150.794 69.912 151.317 69.768 151.733 69.48C152.159 69.1813 152.458 68.7867 152.629 68.296H154.197C153.962 69.1387 153.493 69.8267 152.789 70.36C152.085 70.8827 151.21 71.144 150.165 71.144C149.333 71.144 148.586 70.9573 147.925 70.584C147.274 70.2107 146.762 69.6827 146.389 69C146.015 68.3067 145.829 67.5067 145.829 66.6C145.829 65.6933 146.01 64.8987 146.373 64.216C146.735 63.5333 147.242 63.0107 147.893 62.648C148.554 62.2747 149.311 62.088 150.165 62.088C150.997 62.088 151.733 62.2693 152.373 62.632C153.013 62.9947 153.503 63.496 153.845 64.136C154.197 64.7653 154.373 65.48 154.373 66.28ZM152.869 65.976C152.869 65.4213 152.746 64.9467 152.501 64.552C152.255 64.1467 151.919 63.8427 151.493 63.64C151.077 63.4267 150.613 63.32 150.101 63.32C149.365 63.32 148.735 63.5547 148.213 64.024C147.701 64.4933 147.407 65.144 147.333 65.976H152.869ZM164.295 66.28C164.295 66.5573 164.279 66.8507 164.247 67.16H157.239C157.292 68.024 157.585 68.7013 158.119 69.192C158.663 69.672 159.319 69.912 160.087 69.912C160.716 69.912 161.239 69.768 161.655 69.48C162.081 69.1813 162.38 68.7867 162.551 68.296H164.119C163.884 69.1387 163.415 69.8267 162.711 70.36C162.007 70.8827 161.132 71.144 160.087 71.144C159.255 71.144 158.508 70.9573 157.847 70.584C157.196 70.2107 156.684 69.6827 156.311 69C155.937 68.3067 155.751 67.5067 155.751 66.6C155.751 65.6933 155.932 64.8987 156.295 64.216C156.657 63.5333 157.164 63.0107 157.815 62.648C158.476 62.2747 159.233 62.088 160.087 62.088C160.919 62.088 161.655 62.2693 162.295 62.632C162.935 62.9947 163.425 63.496 163.767 64.136C164.119 64.7653 164.295 65.48 164.295 66.28ZM162.791 65.976C162.791 65.4213 162.668 64.9467 162.423 64.552C162.177 64.1467 161.841 63.8427 161.415 63.64C160.999 63.4267 160.535 63.32 160.023 63.32C159.287 63.32 158.657 63.5547 158.135 64.024C157.623 64.4933 157.329 65.144 157.255 65.976H162.791ZM171.112 71L167.672 67.128V71H166.216V59.16H167.672V66.12L171.048 62.232H173.08L168.952 66.6L173.096 71H171.112ZM182.284 63.432H180.444V71H178.988V63.432H177.852V62.232H178.988V61.608C178.988 60.6267 179.239 59.912 179.74 59.464C180.252 59.0053 181.068 58.776 182.188 58.776V59.992C181.548 59.992 181.095 60.12 180.828 60.376C180.572 60.6213 180.444 61.032 180.444 61.608V62.232H182.284V63.432ZM184.734 60.808C184.457 60.808 184.222 60.712 184.03 60.52C183.838 60.328 183.742 60.0933 183.742 59.816C183.742 59.5387 183.838 59.304 184.03 59.112C184.222 58.92 184.457 58.824 184.734 58.824C185.001 58.824 185.225 58.92 185.406 59.112C185.598 59.304 185.694 59.5387 185.694 59.816C185.694 60.0933 185.598 60.328 185.406 60.52C185.225 60.712 185.001 60.808 184.734 60.808ZM185.438 62.232V71H183.982V62.232H185.438ZM192.192 62.072C193.258 62.072 194.122 62.3973 194.784 63.048C195.445 63.688 195.776 64.616 195.776 65.832V71H194.336V66.04C194.336 65.1653 194.117 64.4987 193.68 64.04C193.242 63.5707 192.645 63.336 191.888 63.336C191.12 63.336 190.506 63.576 190.048 64.056C189.6 64.536 189.376 65.2347 189.376 66.152V71H187.92V62.232H189.376V63.48C189.664 63.032 190.053 62.6853 190.544 62.44C191.045 62.1947 191.594 62.072 192.192 62.072ZM197.61 66.584C197.61 65.688 197.791 64.904 198.154 64.232C198.517 63.5493 199.013 63.0213 199.642 62.648C200.282 62.2747 200.991 62.088 201.77 62.088C202.538 62.088 203.205 62.2533 203.77 62.584C204.335 62.9147 204.757 63.3307 205.034 63.832V62.232H206.506V71H205.034V69.368C204.746 69.88 204.314 70.3067 203.738 70.648C203.173 70.9787 202.511 71.144 201.754 71.144C200.975 71.144 200.271 70.952 199.642 70.568C199.013 70.184 198.517 69.6453 198.154 68.952C197.791 68.2587 197.61 67.4693 197.61 66.584ZM205.034 66.6C205.034 65.9387 204.901 65.3627 204.634 64.872C204.367 64.3813 204.005 64.008 203.546 63.752C203.098 63.4853 202.602 63.352 202.058 63.352C201.514 63.352 201.018 63.48 200.57 63.736C200.122 63.992 199.765 64.3653 199.498 64.856C199.231 65.3467 199.098 65.9227 199.098 66.584C199.098 67.256 199.231 67.8427 199.498 68.344C199.765 68.8347 200.122 69.2133 200.57 69.48C201.018 69.736 201.514 69.864 202.058 69.864C202.602 69.864 203.098 69.736 203.546 69.48C204.005 69.2133 204.367 68.8347 204.634 68.344C204.901 67.8427 205.034 67.2613 205.034 66.6ZM213.238 62.072C214.305 62.072 215.169 62.3973 215.83 63.048C216.492 63.688 216.822 64.616 216.822 65.832V71H215.382V66.04C215.382 65.1653 215.164 64.4987 214.726 64.04C214.289 63.5707 213.692 63.336 212.934 63.336C212.166 63.336 211.553 63.576 211.094 64.056C210.646 64.536 210.422 65.2347 210.422 66.152V71H208.966V62.232H210.422V63.48C210.71 63.032 211.1 62.6853 211.59 62.44C212.092 62.1947 212.641 62.072 213.238 62.072ZM218.657 66.6C218.657 65.6933 218.838 64.904 219.201 64.232C219.563 63.5493 220.065 63.0213 220.705 62.648C221.355 62.2747 222.097 62.088 222.929 62.088C224.006 62.088 224.891 62.3493 225.585 62.872C226.289 63.3947 226.753 64.12 226.977 65.048H225.409C225.259 64.5147 224.966 64.0933 224.529 63.784C224.102 63.4747 223.569 63.32 222.929 63.32C222.097 63.32 221.425 63.608 220.913 64.184C220.401 64.7493 220.145 65.5547 220.145 66.6C220.145 67.656 220.401 68.472 220.913 69.048C221.425 69.624 222.097 69.912 222.929 69.912C223.569 69.912 224.102 69.7627 224.529 69.464C224.955 69.1653 225.249 68.7387 225.409 68.184H226.977C226.742 69.08 226.273 69.8 225.569 70.344C224.865 70.8773 223.985 71.144 222.929 71.144C222.097 71.144 221.355 70.9573 220.705 70.584C220.065 70.2107 219.563 69.6827 219.201 69C218.838 68.3173 218.657 67.5173 218.657 66.6ZM229.672 60.808C229.394 60.808 229.16 60.712 228.968 60.52C228.776 60.328 228.68 60.0933 228.68 59.816C228.68 59.5387 228.776 59.304 228.968 59.112C229.16 58.92 229.394 58.824 229.672 58.824C229.938 58.824 230.162 58.92 230.344 59.112C230.536 59.304 230.632 59.5387 230.632 59.816C230.632 60.0933 230.536 60.328 230.344 60.52C230.162 60.712 229.938 60.808 229.672 60.808ZM230.376 62.232V71H228.92V62.232H230.376ZM232.313 66.584C232.313 65.688 232.494 64.904 232.857 64.232C233.22 63.5493 233.716 63.0213 234.345 62.648C234.985 62.2747 235.694 62.088 236.473 62.088C237.241 62.088 237.908 62.2533 238.473 62.584C239.038 62.9147 239.46 63.3307 239.737 63.832V62.232H241.209V71H239.737V69.368C239.449 69.88 239.017 70.3067 238.441 70.648C237.876 70.9787 237.214 71.144 236.457 71.144C235.678 71.144 234.974 70.952 234.345 70.568C233.716 70.184 233.22 69.6453 232.857 68.952C232.494 68.2587 232.313 67.4693 232.313 66.584ZM239.737 66.6C239.737 65.9387 239.604 65.3627 239.337 64.872C239.07 64.3813 238.708 64.008 238.249 63.752C237.801 63.4853 237.305 63.352 236.761 63.352C236.217 63.352 235.721 63.48 235.273 63.736C234.825 63.992 234.468 64.3653 234.201 64.856C233.934 65.3467 233.801 65.9227 233.801 66.584C233.801 67.256 233.934 67.8427 234.201 68.344C234.468 68.8347 234.825 69.2133 235.273 69.48C235.721 69.736 236.217 69.864 236.761 69.864C237.305 69.864 237.801 69.736 238.249 69.48C238.708 69.2133 239.07 68.8347 239.337 68.344C239.604 67.8427 239.737 67.2613 239.737 66.6ZM245.126 59.16V71H243.67V59.16H245.126ZM254.977 71.144C254.305 71.144 253.702 71.032 253.169 70.808C252.635 70.5733 252.214 70.2533 251.905 69.848C251.595 69.432 251.425 68.9573 251.393 68.424H252.897C252.939 68.8613 253.142 69.2187 253.505 69.496C253.878 69.7733 254.363 69.912 254.961 69.912C255.515 69.912 255.953 69.7893 256.273 69.544C256.593 69.2987 256.753 68.9893 256.753 68.616C256.753 68.232 256.582 67.9493 256.241 67.768C255.899 67.576 255.371 67.3893 254.657 67.208C254.006 67.0373 253.473 66.8667 253.057 66.696C252.651 66.5147 252.299 66.2533 252.001 65.912C251.713 65.56 251.569 65.1013 251.569 64.536C251.569 64.088 251.702 63.6773 251.969 63.304C252.235 62.9307 252.614 62.6373 253.105 62.424C253.595 62.2 254.155 62.088 254.785 62.088C255.755 62.088 256.539 62.3333 257.137 62.824C257.734 63.3147 258.054 63.9867 258.097 64.84H256.641C256.609 64.3813 256.422 64.0133 256.081 63.736C255.75 63.4587 255.302 63.32 254.737 63.32C254.214 63.32 253.798 63.432 253.489 63.656C253.179 63.88 253.025 64.1733 253.025 64.536C253.025 64.824 253.115 65.064 253.297 65.256C253.489 65.4373 253.723 65.5867 254.001 65.704C254.289 65.8107 254.683 65.9333 255.185 66.072C255.814 66.2427 256.326 66.4133 256.721 66.584C257.115 66.744 257.451 66.9893 257.729 67.32C258.017 67.6507 258.166 68.0827 258.177 68.616C258.177 69.096 258.043 69.528 257.777 69.912C257.51 70.296 257.131 70.6 256.641 70.824C256.161 71.0373 255.606 71.144 254.977 71.144ZM268.008 62.232V71H266.552V69.704C266.275 70.152 265.885 70.504 265.384 70.76C264.893 71.0053 264.349 71.128 263.752 71.128C263.069 71.128 262.456 70.9893 261.912 70.712C261.368 70.424 260.936 69.9973 260.616 69.432C260.307 68.8667 260.152 68.1787 260.152 67.368V62.232H261.592V67.176C261.592 68.04 261.811 68.7067 262.248 69.176C262.685 69.6347 263.283 69.864 264.04 69.864C264.819 69.864 265.432 69.624 265.88 69.144C266.328 68.664 266.552 67.9653 266.552 67.048V62.232H268.008ZM271.922 63.848C272.21 63.3467 272.637 62.9307 273.202 62.6C273.778 62.2587 274.445 62.088 275.202 62.088C275.981 62.088 276.685 62.2747 277.314 62.648C277.954 63.0213 278.456 63.5493 278.818 64.232C279.181 64.904 279.362 65.688 279.362 66.584C279.362 67.4693 279.181 68.2587 278.818 68.952C278.456 69.6453 277.954 70.184 277.314 70.568C276.685 70.952 275.981 71.144 275.202 71.144C274.456 71.144 273.794 70.9787 273.218 70.648C272.653 70.3067 272.221 69.8853 271.922 69.384V75.16H270.466V62.232H271.922V63.848ZM277.874 66.584C277.874 65.9227 277.741 65.3467 277.474 64.856C277.208 64.3653 276.845 63.992 276.386 63.736C275.938 63.48 275.442 63.352 274.898 63.352C274.365 63.352 273.869 63.4853 273.41 63.752C272.962 64.008 272.6 64.3867 272.322 64.888C272.056 65.3787 271.922 65.9493 271.922 66.6C271.922 67.2613 272.056 67.8427 272.322 68.344C272.6 68.8347 272.962 69.2133 273.41 69.48C273.869 69.736 274.365 69.864 274.898 69.864C275.442 69.864 275.938 69.736 276.386 69.48C276.845 69.2133 277.208 68.8347 277.474 68.344C277.741 67.8427 277.874 67.256 277.874 66.584ZM282.735 63.848C283.023 63.3467 283.45 62.9307 284.015 62.6C284.591 62.2587 285.258 62.088 286.015 62.088C286.794 62.088 287.498 62.2747 288.127 62.648C288.767 63.0213 289.268 63.5493 289.631 64.232C289.994 64.904 290.175 65.688 290.175 66.584C290.175 67.4693 289.994 68.2587 289.631 68.952C289.268 69.6453 288.767 70.184 288.127 70.568C287.498 70.952 286.794 71.144 286.015 71.144C285.268 71.144 284.607 70.9787 284.031 70.648C283.466 70.3067 283.034 69.8853 282.735 69.384V75.16H281.279V62.232H282.735V63.848ZM288.687 66.584C288.687 65.9227 288.554 65.3467 288.287 64.856C288.02 64.3653 287.658 63.992 287.199 63.736C286.751 63.48 286.255 63.352 285.711 63.352C285.178 63.352 284.682 63.4853 284.223 63.752C283.775 64.008 283.412 64.3867 283.135 64.888C282.868 65.3787 282.735 65.9493 282.735 66.6C282.735 67.2613 282.868 67.8427 283.135 68.344C283.412 68.8347 283.775 69.2133 284.223 69.48C284.682 69.736 285.178 69.864 285.711 69.864C286.255 69.864 286.751 69.736 287.199 69.48C287.658 69.2133 288.02 68.8347 288.287 68.344C288.554 67.8427 288.687 67.256 288.687 66.584ZM295.915 71.144C295.094 71.144 294.347 70.9573 293.675 70.584C293.014 70.2107 292.491 69.6827 292.107 69C291.734 68.3067 291.547 67.5067 291.547 66.6C291.547 65.704 291.739 64.9147 292.123 64.232C292.518 63.5387 293.051 63.0107 293.723 62.648C294.395 62.2747 295.147 62.088 295.979 62.088C296.811 62.088 297.563 62.2747 298.235 62.648C298.907 63.0107 299.435 63.5333 299.819 64.216C300.214 64.8987 300.411 65.6933 300.411 66.6C300.411 67.5067 300.209 68.3067 299.803 69C299.409 69.6827 298.87 70.2107 298.187 70.584C297.505 70.9573 296.747 71.144 295.915 71.144ZM295.915 69.864C296.438 69.864 296.929 69.7413 297.387 69.496C297.846 69.2507 298.214 68.8827 298.491 68.392C298.779 67.9013 298.923 67.304 298.923 66.6C298.923 65.896 298.785 65.2987 298.507 64.808C298.23 64.3173 297.867 63.9547 297.419 63.72C296.971 63.4747 296.486 63.352 295.963 63.352C295.43 63.352 294.939 63.4747 294.491 63.72C294.054 63.9547 293.702 64.3173 293.435 64.808C293.169 65.2987 293.035 65.896 293.035 66.6C293.035 67.3147 293.163 67.9173 293.419 68.408C293.686 68.8987 294.038 69.2667 294.475 69.512C294.913 69.7467 295.393 69.864 295.915 69.864ZM303.782 63.656C304.038 63.1547 304.4 62.7653 304.87 62.488C305.35 62.2107 305.931 62.072 306.614 62.072V63.576H306.23C304.598 63.576 303.782 64.4613 303.782 66.232V71H302.326V62.232H303.782V63.656ZM310.071 63.432V68.6C310.071 69.0267 310.161 69.3307 310.343 69.512C310.524 69.6827 310.839 69.768 311.286 69.768H312.359V71H311.047C310.236 71 309.628 70.8133 309.223 70.44C308.817 70.0667 308.615 69.4533 308.615 68.6V63.432H307.479V62.232H308.615V60.024H310.071V62.232H312.359V63.432H310.071ZM321.956 63.432H320.116V71H318.66V63.432H317.524V62.232H318.66V61.608C318.66 60.6267 318.911 59.912 319.412 59.464C319.924 59.0053 320.74 58.776 321.86 58.776V59.992C321.22 59.992 320.767 60.12 320.5 60.376C320.244 60.6213 320.116 61.032 320.116 61.608V62.232H321.956V63.432ZM325.11 63.656C325.366 63.1547 325.729 62.7653 326.198 62.488C326.678 62.2107 327.259 62.072 327.942 62.072V63.576H327.558C325.926 63.576 325.11 64.4613 325.11 66.232V71H323.654V62.232H325.11V63.656ZM333.447 71.144C332.625 71.144 331.879 70.9573 331.207 70.584C330.545 70.2107 330.023 69.6827 329.639 69C329.265 68.3067 329.079 67.5067 329.079 66.6C329.079 65.704 329.271 64.9147 329.655 64.232C330.049 63.5387 330.583 63.0107 331.255 62.648C331.927 62.2747 332.679 62.088 333.511 62.088C334.343 62.088 335.095 62.2747 335.767 62.648C336.439 63.0107 336.967 63.5333 337.351 64.216C337.745 64.8987 337.943 65.6933 337.943 66.6C337.943 67.5067 337.74 68.3067 337.335 69C336.94 69.6827 336.401 70.2107 335.719 70.584C335.036 70.9573 334.279 71.144 333.447 71.144ZM333.447 69.864C333.969 69.864 334.46 69.7413 334.919 69.496C335.377 69.2507 335.745 68.8827 336.023 68.392C336.311 67.9013 336.455 67.304 336.455 66.6C336.455 65.896 336.316 65.2987 336.039 64.808C335.761 64.3173 335.399 63.9547 334.951 63.72C334.503 63.4747 334.017 63.352 333.495 63.352C332.961 63.352 332.471 63.4747 332.023 63.72C331.585 63.9547 331.233 64.3173 330.967 64.808C330.7 65.2987 330.567 65.896 330.567 66.6C330.567 67.3147 330.695 67.9173 330.951 68.408C331.217 68.8987 331.569 69.2667 332.007 69.512C332.444 69.7467 332.924 69.864 333.447 69.864ZM350.401 62.072C351.084 62.072 351.692 62.216 352.225 62.504C352.758 62.7813 353.18 63.2027 353.489 63.768C353.798 64.3333 353.953 65.0213 353.953 65.832V71H352.513V66.04C352.513 65.1653 352.294 64.4987 351.857 64.04C351.43 63.5707 350.849 63.336 350.113 63.336C349.356 63.336 348.753 63.5813 348.305 64.072C347.857 64.552 347.633 65.2507 347.633 66.168V71H346.193V66.04C346.193 65.1653 345.974 64.4987 345.537 64.04C345.11 63.5707 344.529 63.336 343.793 63.336C343.036 63.336 342.433 63.5813 341.985 64.072C341.537 64.552 341.313 65.2507 341.313 66.168V71H339.857V62.232H341.313V63.496C341.601 63.0373 341.985 62.6853 342.465 62.44C342.956 62.1947 343.494 62.072 344.081 62.072C344.817 62.072 345.468 62.2373 346.033 62.568C346.598 62.8987 347.02 63.384 347.297 64.024C347.542 63.4053 347.948 62.9253 348.513 62.584C349.078 62.2427 349.708 62.072 350.401 62.072ZM360.063 66.584C360.063 65.688 360.244 64.904 360.607 64.232C360.97 63.5493 361.466 63.0213 362.095 62.648C362.735 62.2747 363.444 62.088 364.223 62.088C364.991 62.088 365.658 62.2533 366.223 62.584C366.788 62.9147 367.21 63.3307 367.487 63.832V62.232H368.959V71H367.487V69.368C367.199 69.88 366.767 70.3067 366.191 70.648C365.626 70.9787 364.964 71.144 364.207 71.144C363.428 71.144 362.724 70.952 362.095 70.568C361.466 70.184 360.97 69.6453 360.607 68.952C360.244 68.2587 360.063 67.4693 360.063 66.584ZM367.487 66.6C367.487 65.9387 367.354 65.3627 367.087 64.872C366.82 64.3813 366.458 64.008 365.999 63.752C365.551 63.4853 365.055 63.352 364.511 63.352C363.967 63.352 363.471 63.48 363.023 63.736C362.575 63.992 362.218 64.3653 361.951 64.856C361.684 65.3467 361.551 65.9227 361.551 66.584C361.551 67.256 361.684 67.8427 361.951 68.344C362.218 68.8347 362.575 69.2133 363.023 69.48C363.471 69.736 363.967 69.864 364.511 69.864C365.055 69.864 365.551 69.736 365.999 69.48C366.458 69.2133 366.82 68.8347 367.087 68.344C367.354 67.8427 367.487 67.2613 367.487 66.6ZM375.692 62.072C376.758 62.072 377.622 62.3973 378.284 63.048C378.945 63.688 379.276 64.616 379.276 65.832V71H377.836V66.04C377.836 65.1653 377.617 64.4987 377.18 64.04C376.742 63.5707 376.145 63.336 375.388 63.336C374.62 63.336 374.006 63.576 373.548 64.056C373.1 64.536 372.876 65.2347 372.876 66.152V71H371.42V62.232H372.876V63.48C373.164 63.032 373.553 62.6853 374.044 62.44C374.545 62.1947 375.094 62.072 375.692 62.072ZM386.672 60.808C386.394 60.808 386.16 60.712 385.968 60.52C385.776 60.328 385.68 60.0933 385.68 59.816C385.68 59.5387 385.776 59.304 385.968 59.112C386.16 58.92 386.394 58.824 386.672 58.824C386.938 58.824 387.162 58.92 387.344 59.112C387.536 59.304 387.632 59.5387 387.632 59.816C387.632 60.0933 387.536 60.328 387.344 60.52C387.162 60.712 386.938 60.808 386.672 60.808ZM387.376 62.232V71H385.92V62.232H387.376ZM394.129 62.072C395.196 62.072 396.06 62.3973 396.721 63.048C397.382 63.688 397.713 64.616 397.713 65.832V71H396.273V66.04C396.273 65.1653 396.054 64.4987 395.617 64.04C395.18 63.5707 394.582 63.336 393.825 63.336C393.057 63.336 392.444 63.576 391.985 64.056C391.537 64.536 391.313 65.2347 391.313 66.152V71H389.857V62.232H391.313V63.48C391.601 63.032 391.99 62.6853 392.481 62.44C392.982 62.1947 393.532 62.072 394.129 62.072ZM403.355 69.656L406.075 62.232H407.627L404.187 71H402.491L399.051 62.232H400.619L403.355 69.656ZM417.06 66.28C417.06 66.5573 417.044 66.8507 417.012 67.16H410.004C410.057 68.024 410.351 68.7013 410.884 69.192C411.428 69.672 412.084 69.912 412.852 69.912C413.481 69.912 414.004 69.768 414.42 69.48C414.847 69.1813 415.145 68.7867 415.316 68.296H416.884C416.649 69.1387 416.18 69.8267 415.476 70.36C414.772 70.8827 413.897 71.144 412.852 71.144C412.02 71.144 411.273 70.9573 410.612 70.584C409.961 70.2107 409.449 69.6827 409.076 69C408.703 68.3067 408.516 67.5067 408.516 66.6C408.516 65.6933 408.697 64.8987 409.06 64.216C409.423 63.5333 409.929 63.0107 410.58 62.648C411.241 62.2747 411.999 62.088 412.852 62.088C413.684 62.088 414.42 62.2693 415.06 62.632C415.7 62.9947 416.191 63.496 416.532 64.136C416.884 64.7653 417.06 65.48 417.06 66.28ZM415.556 65.976C415.556 65.4213 415.433 64.9467 415.188 64.552C414.943 64.1467 414.607 63.8427 414.18 63.64C413.764 63.4267 413.3 63.32 412.788 63.32C412.052 63.32 411.423 63.5547 410.9 64.024C410.388 64.4933 410.095 65.144 410.02 65.976H415.556ZM422.086 71.144C421.414 71.144 420.811 71.032 420.278 70.808C419.745 70.5733 419.323 70.2533 419.014 69.848C418.705 69.432 418.534 68.9573 418.502 68.424H420.006C420.049 68.8613 420.251 69.2187 420.614 69.496C420.987 69.7733 421.473 69.912 422.07 69.912C422.625 69.912 423.062 69.7893 423.382 69.544C423.702 69.2987 423.862 68.9893 423.862 68.616C423.862 68.232 423.691 67.9493 423.35 67.768C423.009 67.576 422.481 67.3893 421.766 67.208C421.115 67.0373 420.582 66.8667 420.166 66.696C419.761 66.5147 419.409 66.2533 419.11 65.912C418.822 65.56 418.678 65.1013 418.678 64.536C418.678 64.088 418.811 63.6773 419.078 63.304C419.345 62.9307 419.723 62.6373 420.214 62.424C420.705 62.2 421.265 62.088 421.894 62.088C422.865 62.088 423.649 62.3333 424.246 62.824C424.843 63.3147 425.163 63.9867 425.206 64.84H423.75C423.718 64.3813 423.531 64.0133 423.19 63.736C422.859 63.4587 422.411 63.32 421.846 63.32C421.323 63.32 420.907 63.432 420.598 63.656C420.289 63.88 420.134 64.1733 420.134 64.536C420.134 64.824 420.225 65.064 420.406 65.256C420.598 65.4373 420.833 65.5867 421.11 65.704C421.398 65.8107 421.793 65.9333 422.294 66.072C422.923 66.2427 423.435 66.4133 423.83 66.584C424.225 66.744 424.561 66.9893 424.838 67.32C425.126 67.6507 425.275 68.0827 425.286 68.616C425.286 69.096 425.153 69.528 424.886 69.912C424.619 70.296 424.241 70.6 423.75 70.824C423.27 71.0373 422.715 71.144 422.086 71.144ZM429.117 63.432V68.6C429.117 69.0267 429.208 69.3307 429.389 69.512C429.571 69.6827 429.885 69.768 430.333 69.768H431.405V71H430.093C429.283 71 428.675 70.8133 428.269 70.44C427.864 70.0667 427.661 69.4533 427.661 68.6V63.432H426.525V62.232H427.661V60.024H429.117V62.232H431.405V63.432H429.117ZM436.994 71.144C436.172 71.144 435.426 70.9573 434.754 70.584C434.092 70.2107 433.57 69.6827 433.186 69C432.812 68.3067 432.626 67.5067 432.626 66.6C432.626 65.704 432.818 64.9147 433.202 64.232C433.596 63.5387 434.13 63.0107 434.802 62.648C435.474 62.2747 436.226 62.088 437.058 62.088C437.89 62.088 438.642 62.2747 439.314 62.648C439.986 63.0107 440.514 63.5333 440.898 64.216C441.292 64.8987 441.49 65.6933 441.49 66.6C441.49 67.5067 441.287 68.3067 440.882 69C440.487 69.6827 439.948 70.2107 439.266 70.584C438.583 70.9573 437.826 71.144 436.994 71.144ZM436.994 69.864C437.516 69.864 438.007 69.7413 438.466 69.496C438.924 69.2507 439.292 68.8827 439.57 68.392C439.858 67.9013 440.002 67.304 440.002 66.6C440.002 65.896 439.863 65.2987 439.586 64.808C439.308 64.3173 438.946 63.9547 438.498 63.72C438.05 63.4747 437.564 63.352 437.042 63.352C436.508 63.352 436.018 63.4747 435.57 63.72C435.132 63.9547 434.78 64.3173 434.514 64.808C434.247 65.2987 434.114 65.896 434.114 66.6C434.114 67.3147 434.242 67.9173 434.498 68.408C434.764 68.8987 435.116 69.2667 435.554 69.512C435.991 69.7467 436.471 69.864 436.994 69.864ZM444.86 63.656C445.116 63.1547 445.479 62.7653 445.948 62.488C446.428 62.2107 447.009 62.072 447.692 62.072V63.576H447.308C445.676 63.576 444.86 64.4613 444.86 66.232V71H443.404V62.232H444.86V63.656ZM450.877 68.984L449.085 73.288H448.109L449.277 68.984H450.877ZM14.688 90.584C14.688 89.688 14.8693 88.904 15.232 88.232C15.5947 87.5493 16.0907 87.0213 16.72 86.648C17.36 86.2747 18.0693 86.088 18.848 86.088C19.616 86.088 20.2827 86.2533 20.848 86.584C21.4133 86.9147 21.8347 87.3307 22.112 87.832V86.232H23.584V95H22.112V93.368C21.824 93.88 21.392 94.3067 20.816 94.648C20.2507 94.9787 19.5893 95.144 18.832 95.144C18.0533 95.144 17.3493 94.952 16.72 94.568C16.0907 94.184 15.5947 93.6453 15.232 92.952C14.8693 92.2587 14.688 91.4693 14.688 90.584ZM22.112 90.6C22.112 89.9387 21.9787 89.3627 21.712 88.872C21.4453 88.3813 21.0827 88.008 20.624 87.752C20.176 87.4853 19.68 87.352 19.136 87.352C18.592 87.352 18.096 87.48 17.648 87.736C17.2 87.992 16.8427 88.3653 16.576 88.856C16.3093 89.3467 16.176 89.9227 16.176 90.584C16.176 91.256 16.3093 91.8427 16.576 92.344C16.8427 92.8347 17.2 93.2133 17.648 93.48C18.096 93.736 18.592 93.864 19.136 93.864C19.68 93.864 20.176 93.736 20.624 93.48C21.0827 93.2133 21.4453 92.8347 21.712 92.344C21.9787 91.8427 22.112 91.2613 22.112 90.6ZM32.0861 87.432V92.6C32.0861 93.0267 32.1768 93.3307 32.3581 93.512C32.5395 93.6827 32.8541 93.768 33.3021 93.768H34.3741V95H33.0621C32.2515 95 31.6435 94.8133 31.2381 94.44C30.8328 94.0667 30.6301 93.4533 30.6301 92.6V87.432H29.4941V86.232H30.6301V84.024H32.0861V86.232H34.3741V87.432H32.0861ZM37.5943 87.656C37.8503 87.1547 38.2129 86.7653 38.6823 86.488C39.1623 86.2107 39.7436 86.072 40.4263 86.072V87.576H40.0423C38.4103 87.576 37.5943 88.4613 37.5943 90.232V95H36.1383V86.232H37.5943V87.656ZM41.563 90.584C41.563 89.688 41.7443 88.904 42.107 88.232C42.4697 87.5493 42.9657 87.0213 43.595 86.648C44.235 86.2747 44.9443 86.088 45.723 86.088C46.491 86.088 47.1577 86.2533 47.723 86.584C48.2883 86.9147 48.7097 87.3307 48.987 87.832V86.232H50.459V95H48.987V93.368C48.699 93.88 48.267 94.3067 47.691 94.648C47.1257 94.9787 46.4643 95.144 45.707 95.144C44.9283 95.144 44.2243 94.952 43.595 94.568C42.9657 94.184 42.4697 93.6453 42.107 92.952C41.7443 92.2587 41.563 91.4693 41.563 90.584ZM48.987 90.6C48.987 89.9387 48.8537 89.3627 48.587 88.872C48.3203 88.3813 47.9577 88.008 47.499 87.752C47.051 87.4853 46.555 87.352 46.011 87.352C45.467 87.352 44.971 87.48 44.523 87.736C44.075 87.992 43.7177 88.3653 43.451 88.856C43.1843 89.3467 43.051 89.9227 43.051 90.584C43.051 91.256 43.1843 91.8427 43.451 92.344C43.7177 92.8347 44.075 93.2133 44.523 93.48C44.971 93.736 45.467 93.864 46.011 93.864C46.555 93.864 47.051 93.736 47.499 93.48C47.9577 93.2133 48.3203 92.8347 48.587 92.344C48.8537 91.8427 48.987 91.2613 48.987 90.6ZM52.3755 90.584C52.3755 89.688 52.5568 88.904 52.9195 88.232C53.2822 87.5493 53.7782 87.0213 54.4075 86.648C55.0475 86.2747 55.7622 86.088 56.5515 86.088C57.2342 86.088 57.8688 86.248 58.4555 86.568C59.0422 86.8773 59.4902 87.288 59.7995 87.8V83.16H61.2715V95H59.7995V93.352C59.5115 93.8747 59.0848 94.3067 58.5195 94.648C57.9542 94.9787 57.2928 95.144 56.5355 95.144C55.7568 95.144 55.0475 94.952 54.4075 94.568C53.7782 94.184 53.2822 93.6453 52.9195 92.952C52.5568 92.2587 52.3755 91.4693 52.3755 90.584ZM59.7995 90.6C59.7995 89.9387 59.6662 89.3627 59.3995 88.872C59.1328 88.3813 58.7702 88.008 58.3115 87.752C57.8635 87.4853 57.3675 87.352 56.8235 87.352C56.2795 87.352 55.7835 87.48 55.3355 87.736C54.8875 87.992 54.5302 88.3653 54.2635 88.856C53.9968 89.3467 53.8635 89.9227 53.8635 90.584C53.8635 91.256 53.9968 91.8427 54.2635 92.344C54.5302 92.8347 54.8875 93.2133 55.3355 93.48C55.7835 93.736 56.2795 93.864 56.8235 93.864C57.3675 93.864 57.8635 93.736 58.3115 93.48C58.7702 93.2133 59.1328 92.8347 59.3995 92.344C59.6662 91.8427 59.7995 91.2613 59.7995 90.6ZM64.484 84.808C64.2067 84.808 63.972 84.712 63.78 84.52C63.588 84.328 63.492 84.0933 63.492 83.816C63.492 83.5387 63.588 83.304 63.78 83.112C63.972 82.92 64.2067 82.824 64.484 82.824C64.7507 82.824 64.9747 82.92 65.156 83.112C65.348 83.304 65.444 83.5387 65.444 83.816C65.444 84.0933 65.348 84.328 65.156 84.52C64.9747 84.712 64.7507 84.808 64.484 84.808ZM65.188 86.232V95H63.732V86.232H65.188ZM69.4455 87.432V92.6C69.4455 93.0267 69.5362 93.3307 69.7175 93.512C69.8988 93.6827 70.2135 93.768 70.6615 93.768H71.7335V95H70.4215C69.6108 95 69.0028 94.8133 68.5975 94.44C68.1922 94.0667 67.9895 93.4533 67.9895 92.6V87.432H66.8535V86.232H67.9895V84.024H69.4455V86.232H71.7335V87.432H69.4455ZM74.2496 84.808C73.9723 84.808 73.7376 84.712 73.5456 84.52C73.3536 84.328 73.2576 84.0933 73.2576 83.816C73.2576 83.5387 73.3536 83.304 73.5456 83.112C73.7376 82.92 73.9723 82.824 74.2496 82.824C74.5163 82.824 74.7403 82.92 74.9216 83.112C75.1136 83.304 75.2096 83.5387 75.2096 83.816C75.2096 84.0933 75.1136 84.328 74.9216 84.52C74.7403 84.712 74.5163 84.808 74.2496 84.808ZM74.9536 86.232V95H73.4976V86.232H74.9536ZM81.2591 95.144C80.4378 95.144 79.6911 94.9573 79.0191 94.584C78.3578 94.2107 77.8351 93.6827 77.4511 93C77.0778 92.3067 76.8911 91.5067 76.8911 90.6C76.8911 89.704 77.0831 88.9147 77.4671 88.232C77.8618 87.5387 78.3951 87.0107 79.0671 86.648C79.7391 86.2747 80.4911 86.088 81.3231 86.088C82.1551 86.088 82.9071 86.2747 83.5791 86.648C84.2511 87.0107 84.7791 87.5333 85.1631 88.216C85.5578 88.8987 85.7551 89.6933 85.7551 90.6C85.7551 91.5067 85.5525 92.3067 85.1471 93C84.7525 93.6827 84.2138 94.2107 83.5311 94.584C82.8485 94.9573 82.0911 95.144 81.2591 95.144ZM81.2591 93.864C81.7818 93.864 82.2725 93.7413 82.7311 93.496C83.1898 93.2507 83.5578 92.8827 83.8351 92.392C84.1231 91.9013 84.2671 91.304 84.2671 90.6C84.2671 89.896 84.1285 89.2987 83.8511 88.808C83.5738 88.3173 83.2111 87.9547 82.7631 87.72C82.3151 87.4747 81.8298 87.352 81.3071 87.352C80.7738 87.352 80.2831 87.4747 79.8351 87.72C79.3978 87.9547 79.0458 88.3173 78.7791 88.808C78.5125 89.2987 78.3791 89.896 78.3791 90.6C78.3791 91.3147 78.5071 91.9173 78.7631 92.408C79.0298 92.8987 79.3818 93.2667 79.8191 93.512C80.2565 93.7467 80.7365 93.864 81.2591 93.864ZM91.9415 86.072C93.0082 86.072 93.8722 86.3973 94.5335 87.048C95.1948 87.688 95.5255 88.616 95.5255 89.832V95H94.0855V90.04C94.0855 89.1653 93.8668 88.4987 93.4295 88.04C92.9922 87.5707 92.3948 87.336 91.6375 87.336C90.8695 87.336 90.2562 87.576 89.7975 88.056C89.3495 88.536 89.1255 89.2347 89.1255 90.152V95H87.6695V86.232H89.1255V87.48C89.4135 87.032 89.8028 86.6853 90.2935 86.44C90.7948 86.1947 91.3442 86.072 91.9415 86.072ZM97.3599 90.584C97.3599 89.688 97.5412 88.904 97.9039 88.232C98.2665 87.5493 98.7625 87.0213 99.3919 86.648C100.032 86.2747 100.741 86.088 101.52 86.088C102.288 86.088 102.955 86.2533 103.52 86.584C104.085 86.9147 104.507 87.3307 104.784 87.832V86.232H106.256V95H104.784V93.368C104.496 93.88 104.064 94.3067 103.488 94.648C102.923 94.9787 102.261 95.144 101.504 95.144C100.725 95.144 100.021 94.952 99.3919 94.568C98.7625 94.184 98.2665 93.6453 97.9039 92.952C97.5412 92.2587 97.3599 91.4693 97.3599 90.584ZM104.784 90.6C104.784 89.9387 104.651 89.3627 104.384 88.872C104.117 88.3813 103.755 88.008 103.296 87.752C102.848 87.4853 102.352 87.352 101.808 87.352C101.264 87.352 100.768 87.48 100.32 87.736C99.8719 87.992 99.5145 88.3653 99.2479 88.856C98.9812 89.3467 98.8479 89.9227 98.8479 90.584C98.8479 91.256 98.9812 91.8427 99.2479 92.344C99.5145 92.8347 99.8719 93.2133 100.32 93.48C100.768 93.736 101.264 93.864 101.808 93.864C102.352 93.864 102.848 93.736 103.296 93.48C103.755 93.2133 104.117 92.8347 104.384 92.344C104.651 91.8427 104.784 91.2613 104.784 90.6ZM110.172 83.16V95H108.716V83.16H110.172ZM118.376 87.864C118.674 87.3413 119.112 86.9147 119.688 86.584C120.264 86.2533 120.92 86.088 121.656 86.088C122.445 86.088 123.154 86.2747 123.784 86.648C124.413 87.0213 124.909 87.5493 125.272 88.232C125.634 88.904 125.816 89.688 125.816 90.584C125.816 91.4693 125.634 92.2587 125.272 92.952C124.909 93.6453 124.407 94.184 123.767 94.568C123.138 94.952 122.434 95.144 121.656 95.144C120.898 95.144 120.232 94.9787 119.656 94.648C119.09 94.3173 118.664 93.896 118.376 93.384V95H116.92V83.16H118.376V87.864ZM124.328 90.584C124.328 89.9227 124.194 89.3467 123.928 88.856C123.661 88.3653 123.298 87.992 122.84 87.736C122.392 87.48 121.896 87.352 121.352 87.352C120.818 87.352 120.322 87.4853 119.864 87.752C119.416 88.008 119.053 88.3867 118.776 88.888C118.509 89.3787 118.376 89.9493 118.376 90.6C118.376 91.2613 118.509 91.8427 118.776 92.344C119.053 92.8347 119.416 93.2133 119.864 93.48C120.322 93.736 120.818 93.864 121.352 93.864C121.896 93.864 122.392 93.736 122.84 93.48C123.298 93.2133 123.661 92.8347 123.928 92.344C124.194 91.8427 124.328 91.256 124.328 90.584ZM135.508 86.232V95H134.052V93.704C133.775 94.152 133.385 94.504 132.884 94.76C132.393 95.0053 131.849 95.128 131.252 95.128C130.569 95.128 129.956 94.9893 129.412 94.712C128.868 94.424 128.436 93.9973 128.116 93.432C127.807 92.8667 127.652 92.1787 127.652 91.368V86.232H129.092V91.176C129.092 92.04 129.311 92.7067 129.748 93.176C130.185 93.6347 130.783 93.864 131.54 93.864C132.319 93.864 132.932 93.624 133.38 93.144C133.828 92.664 134.052 91.9653 134.052 91.048V86.232H135.508ZM141.07 95.144C140.398 95.144 139.796 95.032 139.262 94.808C138.729 94.5733 138.308 94.2533 137.998 93.848C137.689 93.432 137.518 92.9573 137.486 92.424H138.99C139.033 92.8613 139.236 93.2187 139.598 93.496C139.972 93.7733 140.457 93.912 141.054 93.912C141.609 93.912 142.046 93.7893 142.366 93.544C142.686 93.2987 142.846 92.9893 142.846 92.616C142.846 92.232 142.676 91.9493 142.334 91.768C141.993 91.576 141.465 91.3893 140.75 91.208C140.1 91.0373 139.566 90.8667 139.15 90.696C138.745 90.5147 138.393 90.2533 138.094 89.912C137.806 89.56 137.662 89.1013 137.662 88.536C137.662 88.088 137.796 87.6773 138.062 87.304C138.329 86.9307 138.708 86.6373 139.198 86.424C139.689 86.2 140.249 86.088 140.878 86.088C141.849 86.088 142.633 86.3333 143.23 86.824C143.828 87.3147 144.148 87.9867 144.19 88.84H142.734C142.702 88.3813 142.516 88.0133 142.174 87.736C141.844 87.4587 141.396 87.32 140.83 87.32C140.308 87.32 139.892 87.432 139.582 87.656C139.273 87.88 139.118 88.1733 139.118 88.536C139.118 88.824 139.209 89.064 139.39 89.256C139.582 89.4373 139.817 89.5867 140.094 89.704C140.382 89.8107 140.777 89.9333 141.278 90.072C141.908 90.2427 142.42 90.4133 142.814 90.584C143.209 90.744 143.545 90.9893 143.822 91.32C144.11 91.6507 144.26 92.0827 144.27 92.616C144.27 93.096 144.137 93.528 143.87 93.912C143.604 94.296 143.225 94.6 142.734 94.824C142.254 95.0373 141.7 95.144 141.07 95.144ZM147.078 84.808C146.8 84.808 146.566 84.712 146.374 84.52C146.182 84.328 146.086 84.0933 146.086 83.816C146.086 83.5387 146.182 83.304 146.374 83.112C146.566 82.92 146.8 82.824 147.078 82.824C147.344 82.824 147.568 82.92 147.75 83.112C147.942 83.304 148.038 83.5387 148.038 83.816C148.038 84.0933 147.942 84.328 147.75 84.52C147.568 84.712 147.344 84.808 147.078 84.808ZM147.782 86.232V95H146.326V86.232H147.782ZM154.535 86.072C155.602 86.072 156.466 86.3973 157.127 87.048C157.789 87.688 158.119 88.616 158.119 89.832V95H156.679V90.04C156.679 89.1653 156.461 88.4987 156.023 88.04C155.586 87.5707 154.989 87.336 154.231 87.336C153.463 87.336 152.85 87.576 152.391 88.056C151.943 88.536 151.719 89.2347 151.719 90.152V95H150.263V86.232H151.719V87.48C152.007 87.032 152.397 86.6853 152.887 86.44C153.389 86.1947 153.938 86.072 154.535 86.072ZM168.498 90.28C168.498 90.5573 168.482 90.8507 168.45 91.16H161.442C161.495 92.024 161.788 92.7013 162.322 93.192C162.866 93.672 163.522 93.912 164.29 93.912C164.919 93.912 165.442 93.768 165.858 93.48C166.284 93.1813 166.583 92.7867 166.754 92.296H168.322C168.087 93.1387 167.618 93.8267 166.914 94.36C166.21 94.8827 165.335 95.144 164.29 95.144C163.458 95.144 162.711 94.9573 162.05 94.584C161.399 94.2107 160.887 93.6827 160.514 93C160.14 92.3067 159.954 91.5067 159.954 90.6C159.954 89.6933 160.135 88.8987 160.498 88.216C160.86 87.5333 161.367 87.0107 162.018 86.648C162.679 86.2747 163.436 86.088 164.29 86.088C165.122 86.088 165.858 86.2693 166.498 86.632C167.138 86.9947 167.628 87.496 167.97 88.136C168.322 88.7653 168.498 89.48 168.498 90.28ZM166.994 89.976C166.994 89.4213 166.871 88.9467 166.626 88.552C166.38 88.1467 166.044 87.8427 165.618 87.64C165.202 87.4267 164.738 87.32 164.226 87.32C163.49 87.32 162.86 87.5547 162.338 88.024C161.826 88.4933 161.532 89.144 161.458 89.976H166.994ZM173.524 95.144C172.852 95.144 172.249 95.032 171.716 94.808C171.182 94.5733 170.761 94.2533 170.452 93.848C170.142 93.432 169.972 92.9573 169.94 92.424H171.444C171.486 92.8613 171.689 93.2187 172.052 93.496C172.425 93.7733 172.91 93.912 173.508 93.912C174.062 93.912 174.5 93.7893 174.82 93.544C175.14 93.2987 175.3 92.9893 175.3 92.616C175.3 92.232 175.129 91.9493 174.788 91.768C174.446 91.576 173.918 91.3893 173.204 91.208C172.553 91.0373 172.02 90.8667 171.604 90.696C171.198 90.5147 170.846 90.2533 170.548 89.912C170.26 89.56 170.116 89.1013 170.116 88.536C170.116 88.088 170.249 87.6773 170.516 87.304C170.782 86.9307 171.161 86.6373 171.652 86.424C172.142 86.2 172.702 86.088 173.332 86.088C174.302 86.088 175.086 86.3333 175.684 86.824C176.281 87.3147 176.601 87.9867 176.644 88.84H175.188C175.156 88.3813 174.969 88.0133 174.628 87.736C174.297 87.4587 173.849 87.32 173.284 87.32C172.761 87.32 172.345 87.432 172.036 87.656C171.726 87.88 171.572 88.1733 171.572 88.536C171.572 88.824 171.662 89.064 171.844 89.256C172.036 89.4373 172.27 89.5867 172.548 89.704C172.836 89.8107 173.23 89.9333 173.732 90.072C174.361 90.2427 174.873 90.4133 175.268 90.584C175.662 90.744 175.998 90.9893 176.276 91.32C176.564 91.6507 176.713 92.0827 176.724 92.616C176.724 93.096 176.59 93.528 176.324 93.912C176.057 94.296 175.678 94.6 175.188 94.824C174.708 95.0373 174.153 95.144 173.524 95.144ZM181.883 95.144C181.211 95.144 180.608 95.032 180.075 94.808C179.542 94.5733 179.12 94.2533 178.811 93.848C178.502 93.432 178.331 92.9573 178.299 92.424H179.803C179.846 92.8613 180.048 93.2187 180.411 93.496C180.784 93.7733 181.27 93.912 181.867 93.912C182.422 93.912 182.859 93.7893 183.179 93.544C183.499 93.2987 183.659 92.9893 183.659 92.616C183.659 92.232 183.488 91.9493 183.147 91.768C182.806 91.576 182.278 91.3893 181.563 91.208C180.912 91.0373 180.379 90.8667 179.963 90.696C179.558 90.5147 179.206 90.2533 178.907 89.912C178.619 89.56 178.475 89.1013 178.475 88.536C178.475 88.088 178.608 87.6773 178.875 87.304C179.142 86.9307 179.52 86.6373 180.011 86.424C180.502 86.2 181.062 86.088 181.691 86.088C182.662 86.088 183.446 86.3333 184.043 86.824C184.64 87.3147 184.96 87.9867 185.003 88.84H183.547C183.515 88.3813 183.328 88.0133 182.987 87.736C182.656 87.4587 182.208 87.32 181.643 87.32C181.12 87.32 180.704 87.432 180.395 87.656C180.086 87.88 179.931 88.1733 179.931 88.536C179.931 88.824 180.022 89.064 180.203 89.256C180.395 89.4373 180.63 89.5867 180.907 89.704C181.195 89.8107 181.59 89.9333 182.091 90.072C182.72 90.2427 183.232 90.4133 183.627 90.584C184.022 90.744 184.358 90.9893 184.635 91.32C184.923 91.6507 185.072 92.0827 185.083 92.616C185.083 93.096 184.95 93.528 184.683 93.912C184.416 94.296 184.038 94.6 183.547 94.824C183.067 95.0373 182.512 95.144 181.883 95.144ZM192.86 87.848C193.148 87.3467 193.575 86.9307 194.14 86.6C194.716 86.2587 195.383 86.088 196.14 86.088C196.919 86.088 197.623 86.2747 198.252 86.648C198.892 87.0213 199.393 87.5493 199.756 88.232C200.119 88.904 200.3 89.688 200.3 90.584C200.3 91.4693 200.119 92.2587 199.756 92.952C199.393 93.6453 198.892 94.184 198.252 94.568C197.623 94.952 196.919 95.144 196.14 95.144C195.393 95.144 194.732 94.9787 194.156 94.648C193.591 94.3067 193.159 93.8853 192.86 93.384V99.16H191.404V86.232H192.86V87.848ZM198.812 90.584C198.812 89.9227 198.679 89.3467 198.412 88.856C198.145 88.3653 197.783 87.992 197.324 87.736C196.876 87.48 196.38 87.352 195.836 87.352C195.303 87.352 194.807 87.4853 194.348 87.752C193.9 88.008 193.537 88.3867 193.26 88.888C192.993 89.3787 192.86 89.9493 192.86 90.6C192.86 91.2613 192.993 91.8427 193.26 92.344C193.537 92.8347 193.9 93.2133 194.348 93.48C194.807 93.736 195.303 93.864 195.836 93.864C196.38 93.864 196.876 93.736 197.324 93.48C197.783 93.2133 198.145 92.8347 198.412 92.344C198.679 91.8427 198.812 91.256 198.812 90.584ZM203.672 83.16V95H202.216V83.16H203.672ZM205.61 90.584C205.61 89.688 205.791 88.904 206.154 88.232C206.517 87.5493 207.013 87.0213 207.642 86.648C208.282 86.2747 208.991 86.088 209.77 86.088C210.538 86.088 211.205 86.2533 211.77 86.584C212.335 86.9147 212.757 87.3307 213.034 87.832V86.232H214.506V95H213.034V93.368C212.746 93.88 212.314 94.3067 211.738 94.648C211.173 94.9787 210.511 95.144 209.754 95.144C208.975 95.144 208.271 94.952 207.642 94.568C207.013 94.184 206.517 93.6453 206.154 92.952C205.791 92.2587 205.61 91.4693 205.61 90.584ZM213.034 90.6C213.034 89.9387 212.901 89.3627 212.634 88.872C212.367 88.3813 212.005 88.008 211.546 87.752C211.098 87.4853 210.602 87.352 210.058 87.352C209.514 87.352 209.018 87.48 208.57 87.736C208.122 87.992 207.765 88.3653 207.498 88.856C207.231 89.3467 207.098 89.9227 207.098 90.584C207.098 91.256 207.231 91.8427 207.498 92.344C207.765 92.8347 208.122 93.2133 208.57 93.48C209.018 93.736 209.514 93.864 210.058 93.864C210.602 93.864 211.098 93.736 211.546 93.48C212.005 93.2133 212.367 92.8347 212.634 92.344C212.901 91.8427 213.034 91.2613 213.034 90.6ZM221.238 86.072C222.305 86.072 223.169 86.3973 223.83 87.048C224.492 87.688 224.822 88.616 224.822 89.832V95H223.382V90.04C223.382 89.1653 223.164 88.4987 222.726 88.04C222.289 87.5707 221.692 87.336 220.934 87.336C220.166 87.336 219.553 87.576 219.094 88.056C218.646 88.536 218.422 89.2347 218.422 90.152V95H216.966V86.232H218.422V87.48C218.71 87.032 219.1 86.6853 219.59 86.44C220.092 86.1947 220.641 86.072 221.238 86.072ZM232.218 84.808C231.941 84.808 231.706 84.712 231.514 84.52C231.322 84.328 231.226 84.0933 231.226 83.816C231.226 83.5387 231.322 83.304 231.514 83.112C231.706 82.92 231.941 82.824 232.218 82.824C232.485 82.824 232.709 82.92 232.89 83.112C233.082 83.304 233.178 83.5387 233.178 83.816C233.178 84.0933 233.082 84.328 232.89 84.52C232.709 84.712 232.485 84.808 232.218 84.808ZM232.922 86.232V95H231.466V86.232H232.922ZM238.508 95.144C237.836 95.144 237.233 95.032 236.7 94.808C236.167 94.5733 235.745 94.2533 235.436 93.848C235.127 93.432 234.956 92.9573 234.924 92.424H236.428C236.471 92.8613 236.673 93.2187 237.036 93.496C237.409 93.7733 237.895 93.912 238.492 93.912C239.047 93.912 239.484 93.7893 239.804 93.544C240.124 93.2987 240.284 92.9893 240.284 92.616C240.284 92.232 240.113 91.9493 239.772 91.768C239.431 91.576 238.903 91.3893 238.188 91.208C237.537 91.0373 237.004 90.8667 236.588 90.696C236.183 90.5147 235.831 90.2533 235.532 89.912C235.244 89.56 235.1 89.1013 235.1 88.536C235.1 88.088 235.233 87.6773 235.5 87.304C235.767 86.9307 236.145 86.6373 236.636 86.424C237.127 86.2 237.687 86.088 238.316 86.088C239.287 86.088 240.071 86.3333 240.668 86.824C241.265 87.3147 241.585 87.9867 241.628 88.84H240.172C240.14 88.3813 239.953 88.0133 239.612 87.736C239.281 87.4587 238.833 87.32 238.268 87.32C237.745 87.32 237.329 87.432 237.02 87.656C236.711 87.88 236.556 88.1733 236.556 88.536C236.556 88.824 236.647 89.064 236.828 89.256C237.02 89.4373 237.255 89.5867 237.532 89.704C237.82 89.8107 238.215 89.9333 238.716 90.072C239.345 90.2427 239.857 90.4133 240.252 90.584C240.647 90.744 240.983 90.9893 241.26 91.32C241.548 91.6507 241.697 92.0827 241.708 92.616C241.708 93.096 241.575 93.528 241.308 93.912C241.041 94.296 240.663 94.6 240.172 94.824C239.692 95.0373 239.137 95.144 238.508 95.144ZM247.485 90.584C247.485 89.688 247.666 88.904 248.029 88.232C248.392 87.5493 248.888 87.0213 249.517 86.648C250.157 86.2747 250.866 86.088 251.645 86.088C252.413 86.088 253.08 86.2533 253.645 86.584C254.21 86.9147 254.632 87.3307 254.909 87.832V86.232H256.381V95H254.909V93.368C254.621 93.88 254.189 94.3067 253.613 94.648C253.048 94.9787 252.386 95.144 251.629 95.144C250.85 95.144 250.146 94.952 249.517 94.568C248.888 94.184 248.392 93.6453 248.029 92.952C247.666 92.2587 247.485 91.4693 247.485 90.584ZM254.909 90.6C254.909 89.9387 254.776 89.3627 254.509 88.872C254.242 88.3813 253.88 88.008 253.421 87.752C252.973 87.4853 252.477 87.352 251.933 87.352C251.389 87.352 250.893 87.48 250.445 87.736C249.997 87.992 249.64 88.3653 249.373 88.856C249.106 89.3467 248.973 89.9227 248.973 90.584C248.973 91.256 249.106 91.8427 249.373 92.344C249.64 92.8347 249.997 93.2133 250.445 93.48C250.893 93.736 251.389 93.864 251.933 93.864C252.477 93.864 252.973 93.736 253.421 93.48C253.88 93.2133 254.242 92.8347 254.509 92.344C254.776 91.8427 254.909 91.2613 254.909 90.6ZM273.651 86.072C274.334 86.072 274.942 86.216 275.475 86.504C276.008 86.7813 276.43 87.2027 276.739 87.768C277.048 88.3333 277.203 89.0213 277.203 89.832V95H275.763V90.04C275.763 89.1653 275.544 88.4987 275.107 88.04C274.68 87.5707 274.099 87.336 273.363 87.336C272.606 87.336 272.003 87.5813 271.555 88.072C271.107 88.552 270.883 89.2507 270.883 90.168V95H269.443V90.04C269.443 89.1653 269.224 88.4987 268.787 88.04C268.36 87.5707 267.779 87.336 267.043 87.336C266.286 87.336 265.683 87.5813 265.235 88.072C264.787 88.552 264.563 89.2507 264.563 90.168V95H263.107V86.232H264.563V87.496C264.851 87.0373 265.235 86.6853 265.715 86.44C266.206 86.1947 266.744 86.072 267.331 86.072C268.067 86.072 268.718 86.2373 269.283 86.568C269.848 86.8987 270.27 87.384 270.547 88.024C270.792 87.4053 271.198 86.9253 271.763 86.584C272.328 86.2427 272.958 86.072 273.651 86.072ZM287.367 86.232V95H285.911V93.704C285.634 94.152 285.245 94.504 284.743 94.76C284.253 95.0053 283.709 95.128 283.111 95.128C282.429 95.128 281.815 94.9893 281.271 94.712C280.727 94.424 280.295 93.9973 279.975 93.432C279.666 92.8667 279.511 92.1787 279.511 91.368V86.232H280.951V91.176C280.951 92.04 281.17 92.7067 281.607 93.176C282.045 93.6347 282.642 93.864 283.399 93.864C284.178 93.864 284.791 93.624 285.239 93.144C285.687 92.664 285.911 91.9653 285.911 91.048V86.232H287.367ZM292.93 95.144C292.258 95.144 291.655 95.032 291.122 94.808C290.588 94.5733 290.167 94.2533 289.858 93.848C289.548 93.432 289.378 92.9573 289.346 92.424H290.85C290.892 92.8613 291.095 93.2187 291.458 93.496C291.831 93.7733 292.316 93.912 292.914 93.912C293.468 93.912 293.906 93.7893 294.226 93.544C294.546 93.2987 294.706 92.9893 294.706 92.616C294.706 92.232 294.535 91.9493 294.194 91.768C293.852 91.576 293.324 91.3893 292.61 91.208C291.959 91.0373 291.426 90.8667 291.01 90.696C290.604 90.5147 290.252 90.2533 289.954 89.912C289.666 89.56 289.522 89.1013 289.522 88.536C289.522 88.088 289.655 87.6773 289.922 87.304C290.188 86.9307 290.567 86.6373 291.058 86.424C291.548 86.2 292.108 86.088 292.738 86.088C293.708 86.088 294.492 86.3333 295.09 86.824C295.687 87.3147 296.007 87.9867 296.05 88.84H294.594C294.562 88.3813 294.375 88.0133 294.034 87.736C293.703 87.4587 293.255 87.32 292.69 87.32C292.167 87.32 291.751 87.432 291.442 87.656C291.132 87.88 290.978 88.1733 290.978 88.536C290.978 88.824 291.068 89.064 291.25 89.256C291.442 89.4373 291.676 89.5867 291.954 89.704C292.242 89.8107 292.636 89.9333 293.138 90.072C293.767 90.2427 294.279 90.4133 294.674 90.584C295.068 90.744 295.404 90.9893 295.682 91.32C295.97 91.6507 296.119 92.0827 296.13 92.616C296.13 93.096 295.996 93.528 295.73 93.912C295.463 94.296 295.084 94.6 294.594 94.824C294.114 95.0373 293.559 95.144 292.93 95.144ZM299.961 87.432V92.6C299.961 93.0267 300.052 93.3307 300.233 93.512C300.414 93.6827 300.729 93.768 301.177 93.768H302.249V95H300.937C300.126 95 299.518 94.8133 299.113 94.44C298.708 94.0667 298.505 93.4533 298.505 92.6V87.432H297.369V86.232H298.505V84.024H299.961V86.232H302.249V87.432H299.961ZM304.477 95.096C304.2 95.096 303.965 95 303.773 94.808C303.581 94.616 303.485 94.3813 303.485 94.104C303.485 93.8267 303.581 93.592 303.773 93.4C303.965 93.208 304.2 93.112 304.477 93.112C304.744 93.112 304.968 93.208 305.149 93.4C305.341 93.592 305.437 93.8267 305.437 94.104C305.437 94.3813 305.341 94.616 305.149 94.808C304.968 95 304.744 95.096 304.477 95.096Z" fill="#1F2430"/>
<path d="M536.448 183.848L532.24 195H530.56L526.352 183.848H527.904L531.408 193.464L534.912 183.848H536.448ZM546.045 190.28C546.045 190.557 546.029 190.851 545.997 191.16H538.989C539.042 192.024 539.335 192.701 539.869 193.192C540.413 193.672 541.069 193.912 541.837 193.912C542.466 193.912 542.989 193.768 543.405 193.48C543.831 193.181 544.13 192.787 544.301 192.296H545.869C545.634 193.139 545.165 193.827 544.461 194.36C543.757 194.883 542.882 195.144 541.837 195.144C541.005 195.144 540.258 194.957 539.597 194.584C538.946 194.211 538.434 193.683 538.061 193C537.687 192.307 537.501 191.507 537.501 190.6C537.501 189.693 537.682 188.899 538.045 188.216C538.407 187.533 538.914 187.011 539.565 186.648C540.226 186.275 540.983 186.088 541.837 186.088C542.669 186.088 543.405 186.269 544.045 186.632C544.685 186.995 545.175 187.496 545.517 188.136C545.869 188.765 546.045 189.48 546.045 190.28ZM544.541 189.976C544.541 189.421 544.418 188.947 544.173 188.552C543.927 188.147 543.591 187.843 543.165 187.64C542.749 187.427 542.285 187.32 541.773 187.32C541.037 187.32 540.407 187.555 539.885 188.024C539.373 188.493 539.079 189.144 539.005 189.976H544.541ZM549.422 187.656C549.678 187.155 550.041 186.765 550.51 186.488C550.99 186.211 551.572 186.072 552.254 186.072V187.576H551.87C550.238 187.576 549.422 188.461 549.422 190.232V195H547.966V186.232H549.422V187.656ZM561.487 186.232L556.207 199.128H554.703L556.431 194.904L552.895 186.232H554.511L557.263 193.336L559.983 186.232H561.487ZM566.672 190.6C566.672 189.693 566.854 188.904 567.216 188.232C567.579 187.549 568.08 187.021 568.72 186.648C569.371 186.275 570.112 186.088 570.944 186.088C572.022 186.088 572.907 186.349 573.6 186.872C574.304 187.395 574.768 188.12 574.992 189.048H573.424C573.275 188.515 572.982 188.093 572.544 187.784C572.118 187.475 571.584 187.32 570.944 187.32C570.112 187.32 569.44 187.608 568.928 188.184C568.416 188.749 568.16 189.555 568.16 190.6C568.16 191.656 568.416 192.472 568.928 193.048C569.44 193.624 570.112 193.912 570.944 193.912C571.584 193.912 572.118 193.763 572.544 193.464C572.971 193.165 573.264 192.739 573.424 192.184H574.992C574.758 193.08 574.288 193.8 573.584 194.344C572.88 194.877 572 195.144 570.944 195.144C570.112 195.144 569.371 194.957 568.72 194.584C568.08 194.211 567.579 193.683 567.216 193C566.854 192.317 566.672 191.517 566.672 190.6ZM580.759 195.144C579.938 195.144 579.191 194.957 578.519 194.584C577.858 194.211 577.335 193.683 576.951 193C576.578 192.307 576.391 191.507 576.391 190.6C576.391 189.704 576.583 188.915 576.967 188.232C577.362 187.539 577.895 187.011 578.567 186.648C579.239 186.275 579.991 186.088 580.823 186.088C581.655 186.088 582.407 186.275 583.079 186.648C583.751 187.011 584.279 187.533 584.663 188.216C585.058 188.899 585.255 189.693 585.255 190.6C585.255 191.507 585.052 192.307 584.647 193C584.252 193.683 583.714 194.211 583.031 194.584C582.348 194.957 581.591 195.144 580.759 195.144ZM580.759 193.864C581.282 193.864 581.772 193.741 582.231 193.496C582.69 193.251 583.058 192.883 583.335 192.392C583.623 191.901 583.767 191.304 583.767 190.6C583.767 189.896 583.628 189.299 583.351 188.808C583.074 188.317 582.711 187.955 582.263 187.72C581.815 187.475 581.33 187.352 580.807 187.352C580.274 187.352 579.783 187.475 579.335 187.72C578.898 187.955 578.546 188.317 578.279 188.808C578.012 189.299 577.879 189.896 577.879 190.6C577.879 191.315 578.007 191.917 578.263 192.408C578.53 192.899 578.882 193.267 579.319 193.512C579.756 193.747 580.236 193.864 580.759 193.864ZM588.626 187.656C588.882 187.155 589.244 186.765 589.714 186.488C590.194 186.211 590.775 186.072 591.458 186.072V187.576H591.074C589.442 187.576 588.626 188.461 588.626 190.232V195H587.17V186.232H588.626V187.656ZM594.594 187.656C594.85 187.155 595.213 186.765 595.682 186.488C596.162 186.211 596.744 186.072 597.426 186.072V187.576H597.042C595.41 187.576 594.594 188.461 594.594 190.232V195H593.138V186.232H594.594V187.656ZM607.107 190.28C607.107 190.557 607.091 190.851 607.059 191.16H600.051C600.104 192.024 600.398 192.701 600.931 193.192C601.475 193.672 602.131 193.912 602.899 193.912C603.528 193.912 604.051 193.768 604.467 193.48C604.894 193.181 605.192 192.787 605.363 192.296H606.931C606.696 193.139 606.227 193.827 605.523 194.36C604.819 194.883 603.944 195.144 602.899 195.144C602.067 195.144 601.32 194.957 600.659 194.584C600.008 194.211 599.496 193.683 599.123 193C598.75 192.307 598.563 191.507 598.563 190.6C598.563 189.693 598.744 188.899 599.107 188.216C599.47 187.533 599.976 187.011 600.627 186.648C601.288 186.275 602.046 186.088 602.899 186.088C603.731 186.088 604.467 186.269 605.107 186.632C605.747 186.995 606.238 187.496 606.579 188.136C606.931 188.765 607.107 189.48 607.107 190.28ZM605.603 189.976C605.603 189.421 605.48 188.947 605.235 188.552C604.99 188.147 604.654 187.843 604.227 187.64C603.811 187.427 603.347 187.32 602.835 187.32C602.099 187.32 601.47 187.555 600.947 188.024C600.435 188.493 600.142 189.144 600.067 189.976H605.603ZM608.485 190.6C608.485 189.693 608.666 188.904 609.029 188.232C609.392 187.549 609.893 187.021 610.533 186.648C611.184 186.275 611.925 186.088 612.757 186.088C613.834 186.088 614.72 186.349 615.413 186.872C616.117 187.395 616.581 188.12 616.805 189.048H615.237C615.088 188.515 614.794 188.093 614.357 187.784C613.93 187.475 613.397 187.32 612.757 187.32C611.925 187.32 611.253 187.608 610.741 188.184C610.229 188.749 609.973 189.555 609.973 190.6C609.973 191.656 610.229 192.472 610.741 193.048C611.253 193.624 611.925 193.912 612.757 193.912C613.397 193.912 613.93 193.763 614.357 193.464C614.784 193.165 615.077 192.739 615.237 192.184H616.805C616.57 193.08 616.101 193.8 615.397 194.344C614.693 194.877 613.813 195.144 612.757 195.144C611.925 195.144 611.184 194.957 610.533 194.584C609.893 194.211 609.392 193.683 609.029 193C608.666 192.317 608.485 191.517 608.485 190.6ZM620.524 187.432V192.6C620.524 193.027 620.614 193.331 620.796 193.512C620.977 193.683 621.292 193.768 621.74 193.768H622.812V195H621.5C620.689 195 620.081 194.813 619.676 194.44C619.27 194.067 619.068 193.453 619.068 192.6V187.432H617.932V186.232H619.068V184.024H620.524V186.232H622.812V187.432H620.524Z" fill="white"/>
<path d="M405.248 372.848L402.016 384H400.384L397.792 375.024L395.104 384L393.488 384.016L390.368 372.848H391.92L394.352 382.304L397.04 372.848H398.672L401.232 382.272L403.68 372.848H405.248ZM407.593 373.808C407.316 373.808 407.081 373.712 406.889 373.52C406.697 373.328 406.601 373.093 406.601 372.816C406.601 372.539 406.697 372.304 406.889 372.112C407.081 371.92 407.316 371.824 407.593 371.824C407.86 371.824 408.084 371.92 408.265 372.112C408.457 372.304 408.553 372.539 408.553 372.816C408.553 373.093 408.457 373.328 408.265 373.52C408.084 373.712 407.86 373.808 407.593 373.808ZM408.297 375.232V384H406.841V375.232H408.297ZM412.235 372.16V384H410.779V372.16H412.235ZM416.172 372.16V384H414.716V372.16H416.172ZM430.472 375.232L425.192 388.128H423.688L425.416 383.904L421.88 375.232H423.496L426.248 382.336L428.968 375.232H430.472ZM435.759 384.144C434.938 384.144 434.191 383.957 433.519 383.584C432.858 383.211 432.335 382.683 431.951 382C431.578 381.307 431.391 380.507 431.391 379.6C431.391 378.704 431.583 377.915 431.967 377.232C432.362 376.539 432.895 376.011 433.567 375.648C434.239 375.275 434.991 375.088 435.823 375.088C436.655 375.088 437.407 375.275 438.079 375.648C438.751 376.011 439.279 376.533 439.663 377.216C440.058 377.899 440.255 378.693 440.255 379.6C440.255 380.507 440.052 381.307 439.647 382C439.252 382.683 438.714 383.211 438.031 383.584C437.348 383.957 436.591 384.144 435.759 384.144ZM435.759 382.864C436.282 382.864 436.772 382.741 437.231 382.496C437.69 382.251 438.058 381.883 438.335 381.392C438.623 380.901 438.767 380.304 438.767 379.6C438.767 378.896 438.628 378.299 438.351 377.808C438.074 377.317 437.711 376.955 437.263 376.72C436.815 376.475 436.33 376.352 435.807 376.352C435.274 376.352 434.783 376.475 434.335 376.72C433.898 376.955 433.546 377.317 433.279 377.808C433.012 378.299 432.879 378.896 432.879 379.6C432.879 380.315 433.007 380.917 433.263 381.408C433.53 381.899 433.882 382.267 434.319 382.512C434.756 382.747 435.236 382.864 435.759 382.864ZM449.946 375.232V384H448.49V382.704C448.212 383.152 447.823 383.504 447.322 383.76C446.831 384.005 446.287 384.128 445.69 384.128C445.007 384.128 444.394 383.989 443.85 383.712C443.306 383.424 442.874 382.997 442.554 382.432C442.244 381.867 442.09 381.179 442.09 380.368V375.232H443.53V380.176C443.53 381.04 443.748 381.707 444.186 382.176C444.623 382.635 445.22 382.864 445.978 382.864C446.756 382.864 447.37 382.624 447.818 382.144C448.266 381.664 448.49 380.965 448.49 380.048V375.232H449.946ZM458.126 376.864C458.424 376.341 458.862 375.915 459.438 375.584C460.014 375.253 460.67 375.088 461.406 375.088C462.195 375.088 462.904 375.275 463.534 375.648C464.163 376.021 464.659 376.549 465.022 377.232C465.384 377.904 465.566 378.688 465.566 379.584C465.566 380.469 465.384 381.259 465.022 381.952C464.659 382.645 464.157 383.184 463.517 383.568C462.888 383.952 462.184 384.144 461.406 384.144C460.648 384.144 459.982 383.979 459.406 383.648C458.84 383.317 458.414 382.896 458.126 382.384V384H456.67V372.16H458.126V376.864ZM464.078 379.584C464.078 378.923 463.944 378.347 463.678 377.856C463.411 377.365 463.048 376.992 462.59 376.736C462.142 376.48 461.646 376.352 461.102 376.352C460.568 376.352 460.072 376.485 459.614 376.752C459.166 377.008 458.803 377.387 458.526 377.888C458.259 378.379 458.126 378.949 458.126 379.6C458.126 380.261 458.259 380.843 458.526 381.344C458.803 381.835 459.166 382.213 459.614 382.48C460.072 382.736 460.568 382.864 461.102 382.864C461.646 382.864 462.142 382.736 462.59 382.48C463.048 382.213 463.411 381.835 463.678 381.344C463.944 380.843 464.078 380.256 464.078 379.584ZM475.482 379.28C475.482 379.557 475.466 379.851 475.434 380.16H468.426C468.479 381.024 468.773 381.701 469.306 382.192C469.85 382.672 470.506 382.912 471.274 382.912C471.903 382.912 472.426 382.768 472.842 382.48C473.269 382.181 473.567 381.787 473.738 381.296H475.306C475.071 382.139 474.602 382.827 473.898 383.36C473.194 383.883 472.319 384.144 471.274 384.144C470.442 384.144 469.695 383.957 469.034 383.584C468.383 383.211 467.871 382.683 467.498 382C467.125 381.307 466.938 380.507 466.938 379.6C466.938 378.693 467.119 377.899 467.482 377.216C467.845 376.533 468.351 376.011 469.002 375.648C469.663 375.275 470.421 375.088 471.274 375.088C472.106 375.088 472.842 375.269 473.482 375.632C474.122 375.995 474.613 376.496 474.954 377.136C475.306 377.765 475.482 378.48 475.482 379.28ZM473.978 378.976C473.978 378.421 473.855 377.947 473.61 377.552C473.365 377.147 473.029 376.843 472.602 376.64C472.186 376.427 471.722 376.32 471.21 376.32C470.474 376.32 469.845 376.555 469.322 377.024C468.81 377.493 468.517 378.144 468.442 378.976H473.978ZM481.126 379.584C481.126 378.688 481.307 377.904 481.67 377.232C482.032 376.549 482.528 376.021 483.158 375.648C483.798 375.275 484.507 375.088 485.286 375.088C486.054 375.088 486.72 375.253 487.286 375.584C487.851 375.915 488.272 376.331 488.55 376.832V375.232H490.022V384H488.55V382.368C488.262 382.88 487.83 383.307 487.254 383.648C486.688 383.979 486.027 384.144 485.27 384.144C484.491 384.144 483.787 383.952 483.158 383.568C482.528 383.184 482.032 382.645 481.67 381.952C481.307 381.259 481.126 380.469 481.126 379.584ZM488.55 379.6C488.55 378.939 488.416 378.363 488.15 377.872C487.883 377.381 487.52 377.008 487.062 376.752C486.614 376.485 486.118 376.352 485.574 376.352C485.03 376.352 484.534 376.48 484.086 376.736C483.638 376.992 483.28 377.365 483.014 377.856C482.747 378.347 482.614 378.923 482.614 379.584C482.614 380.256 482.747 380.843 483.014 381.344C483.28 381.835 483.638 382.213 484.086 382.48C484.534 382.736 485.03 382.864 485.574 382.864C486.118 382.864 486.614 382.736 487.062 382.48C487.52 382.213 487.883 381.835 488.15 381.344C488.416 380.843 488.55 380.261 488.55 379.6ZM494.258 376.432V381.6C494.258 382.027 494.349 382.331 494.53 382.512C494.711 382.683 495.026 382.768 495.474 382.768H496.546V384H495.234C494.423 384 493.815 383.813 493.41 383.44C493.005 383.067 492.802 382.453 492.802 381.6V376.432H491.666V375.232H492.802V373.024H494.258V375.232H496.546V376.432H494.258ZM504.352 376.432V381.6C504.352 382.027 504.442 382.331 504.624 382.512C504.805 382.683 505.12 382.768 505.568 382.768H506.64V384H505.328C504.517 384 503.909 383.813 503.504 383.44C503.098 383.067 502.896 382.453 502.896 381.6V376.432H501.76V375.232H502.896V373.024H504.352V375.232H506.64V376.432H504.352ZM512.756 375.072C513.417 375.072 514.015 375.216 514.548 375.504C515.081 375.781 515.497 376.203 515.796 376.768C516.105 377.333 516.26 378.021 516.26 378.832V384H514.82V379.04C514.82 378.165 514.601 377.499 514.164 377.04C513.727 376.571 513.129 376.336 512.372 376.336C511.604 376.336 510.991 376.576 510.532 377.056C510.084 377.536 509.86 378.235 509.86 379.152V384H508.404V372.16H509.86V376.48C510.148 376.032 510.543 375.685 511.044 375.44C511.556 375.195 512.127 375.072 512.756 375.072ZM526.638 379.28C526.638 379.557 526.622 379.851 526.59 380.16H519.582C519.636 381.024 519.929 381.701 520.462 382.192C521.006 382.672 521.662 382.912 522.43 382.912C523.06 382.912 523.582 382.768 523.998 382.48C524.425 382.181 524.724 381.787 524.894 381.296H526.462C526.228 382.139 525.758 382.827 525.054 383.36C524.35 383.883 523.476 384.144 522.43 384.144C521.598 384.144 520.852 383.957 520.19 383.584C519.54 383.211 519.028 382.683 518.654 382C518.281 381.307 518.094 380.507 518.094 379.6C518.094 378.693 518.276 377.899 518.638 377.216C519.001 376.533 519.508 376.011 520.158 375.648C520.82 375.275 521.577 375.088 522.43 375.088C523.262 375.088 523.998 375.269 524.638 375.632C525.278 375.995 525.769 376.496 526.11 377.136C526.462 377.765 526.638 378.48 526.638 379.28ZM525.134 378.976C525.134 378.421 525.012 377.947 524.766 377.552C524.521 377.147 524.185 376.843 523.758 376.64C523.342 376.427 522.878 376.32 522.366 376.32C521.63 376.32 521.001 376.555 520.478 377.024C519.966 377.493 519.673 378.144 519.598 378.976H525.134ZM532.282 379.6C532.282 378.693 532.463 377.904 532.826 377.232C533.188 376.549 533.69 376.021 534.33 375.648C534.98 375.275 535.722 375.088 536.554 375.088C537.631 375.088 538.516 375.349 539.21 375.872C539.914 376.395 540.378 377.12 540.602 378.048H539.034C538.884 377.515 538.591 377.093 538.154 376.784C537.727 376.475 537.194 376.32 536.554 376.32C535.722 376.32 535.05 376.608 534.538 377.184C534.026 377.749 533.77 378.555 533.77 379.6C533.77 380.656 534.026 381.472 534.538 382.048C535.05 382.624 535.722 382.912 536.554 382.912C537.194 382.912 537.727 382.763 538.154 382.464C538.58 382.165 538.874 381.739 539.034 381.184H540.602C540.367 382.08 539.898 382.8 539.194 383.344C538.49 383.877 537.61 384.144 536.554 384.144C535.722 384.144 534.98 383.957 534.33 383.584C533.69 383.211 533.188 382.683 532.826 382C532.463 381.317 532.282 380.517 532.282 379.6ZM546.369 384.144C545.547 384.144 544.801 383.957 544.129 383.584C543.467 383.211 542.945 382.683 542.561 382C542.187 381.307 542.001 380.507 542.001 379.6C542.001 378.704 542.193 377.915 542.577 377.232C542.971 376.539 543.505 376.011 544.177 375.648C544.849 375.275 545.601 375.088 546.433 375.088C547.265 375.088 548.017 375.275 548.689 375.648C549.361 376.011 549.889 376.533 550.273 377.216C550.667 377.899 550.865 378.693 550.865 379.6C550.865 380.507 550.662 381.307 550.257 382C549.862 382.683 549.323 383.211 548.641 383.584C547.958 383.957 547.201 384.144 546.369 384.144ZM546.369 382.864C546.891 382.864 547.382 382.741 547.841 382.496C548.299 382.251 548.667 381.883 548.945 381.392C549.233 380.901 549.377 380.304 549.377 379.6C549.377 378.896 549.238 378.299 548.961 377.808C548.683 377.317 548.321 376.955 547.873 376.72C547.425 376.475 546.939 376.352 546.417 376.352C545.883 376.352 545.393 376.475 544.945 376.72C544.507 376.955 544.155 377.317 543.889 377.808C543.622 378.299 543.489 378.896 543.489 379.6C543.489 380.315 543.617 380.917 543.873 381.408C544.139 381.899 544.491 382.267 544.929 382.512C545.366 382.747 545.846 382.864 546.369 382.864ZM557.051 375.072C558.118 375.072 558.982 375.397 559.643 376.048C560.304 376.688 560.635 377.616 560.635 378.832V384H559.195V379.04C559.195 378.165 558.976 377.499 558.539 377.04C558.102 376.571 557.504 376.336 556.747 376.336C555.979 376.336 555.366 376.576 554.907 377.056C554.459 377.536 554.235 378.235 554.235 379.152V384H552.779V375.232H554.235V376.48C554.523 376.032 554.912 375.685 555.403 375.44C555.904 375.195 556.454 375.072 557.051 375.072ZM566.581 376.432H564.741V384H563.285V376.432H562.149V375.232H563.285V374.608C563.285 373.627 563.536 372.912 564.037 372.464C564.549 372.005 565.365 371.776 566.485 371.776V372.992C565.845 372.992 565.392 373.12 565.125 373.376C564.869 373.621 564.741 374.032 564.741 374.608V375.232H566.581V376.432ZM576.279 379.28C576.279 379.557 576.263 379.851 576.231 380.16H569.223C569.276 381.024 569.57 381.701 570.103 382.192C570.647 382.672 571.303 382.912 572.071 382.912C572.7 382.912 573.223 382.768 573.639 382.48C574.066 382.181 574.364 381.787 574.535 381.296H576.103C575.868 382.139 575.399 382.827 574.695 383.36C573.991 383.883 573.116 384.144 572.071 384.144C571.239 384.144 570.492 383.957 569.831 383.584C569.18 383.211 568.668 382.683 568.295 382C567.922 381.307 567.735 380.507 567.735 379.6C567.735 378.693 567.916 377.899 568.279 377.216C568.642 376.533 569.148 376.011 569.799 375.648C570.46 375.275 571.218 375.088 572.071 375.088C572.903 375.088 573.639 375.269 574.279 375.632C574.919 375.995 575.41 376.496 575.751 377.136C576.103 377.765 576.279 378.48 576.279 379.28ZM574.775 378.976C574.775 378.421 574.652 377.947 574.407 377.552C574.162 377.147 573.826 376.843 573.399 376.64C572.983 376.427 572.519 376.32 572.007 376.32C571.271 376.32 570.642 376.555 570.119 377.024C569.607 377.493 569.314 378.144 569.239 378.976H574.775ZM579.657 376.656C579.913 376.155 580.275 375.765 580.745 375.488C581.225 375.211 581.806 375.072 582.489 375.072V376.576H582.105C580.473 376.576 579.657 377.461 579.657 379.232V384H578.201V375.232H579.657V376.656ZM592.17 379.28C592.17 379.557 592.154 379.851 592.122 380.16H585.114C585.167 381.024 585.46 381.701 585.994 382.192C586.538 382.672 587.194 382.912 587.962 382.912C588.591 382.912 589.114 382.768 589.53 382.48C589.956 382.181 590.255 381.787 590.426 381.296H591.994C591.759 382.139 591.29 382.827 590.586 383.36C589.882 383.883 589.007 384.144 587.962 384.144C587.13 384.144 586.383 383.957 585.722 383.584C585.071 383.211 584.559 382.683 584.186 382C583.812 381.307 583.626 380.507 583.626 379.6C583.626 378.693 583.807 377.899 584.17 377.216C584.532 376.533 585.039 376.011 585.69 375.648C586.351 375.275 587.108 375.088 587.962 375.088C588.794 375.088 589.53 375.269 590.17 375.632C590.81 375.995 591.3 376.496 591.642 377.136C591.994 377.765 592.17 378.48 592.17 379.28ZM590.666 378.976C590.666 378.421 590.543 377.947 590.298 377.552C590.052 377.147 589.716 376.843 589.29 376.64C588.874 376.427 588.41 376.32 587.898 376.32C587.162 376.32 586.532 376.555 586.01 377.024C585.498 377.493 585.204 378.144 585.13 378.976H590.666ZM598.363 375.072C599.43 375.072 600.294 375.397 600.955 376.048C601.617 376.688 601.947 377.616 601.947 378.832V384H600.507V379.04C600.507 378.165 600.289 377.499 599.851 377.04C599.414 376.571 598.817 376.336 598.059 376.336C597.291 376.336 596.678 376.576 596.219 377.056C595.771 377.536 595.547 378.235 595.547 379.152V384H594.091V375.232H595.547V376.48C595.835 376.032 596.225 375.685 596.715 375.44C597.217 375.195 597.766 375.072 598.363 375.072ZM603.782 379.6C603.782 378.693 603.963 377.904 604.326 377.232C604.688 376.549 605.19 376.021 605.83 375.648C606.48 375.275 607.222 375.088 608.054 375.088C609.131 375.088 610.016 375.349 610.71 375.872C611.414 376.395 611.878 377.12 612.102 378.048H610.534C610.384 377.515 610.091 377.093 609.654 376.784C609.227 376.475 608.694 376.32 608.054 376.32C607.222 376.32 606.55 376.608 606.038 377.184C605.526 377.749 605.27 378.555 605.27 379.6C605.27 380.656 605.526 381.472 606.038 382.048C606.55 382.624 607.222 382.912 608.054 382.912C608.694 382.912 609.227 382.763 609.654 382.464C610.08 382.165 610.374 381.739 610.534 381.184H612.102C611.867 382.08 611.398 382.8 610.694 383.344C609.99 383.877 609.11 384.144 608.054 384.144C607.222 384.144 606.48 383.957 605.83 383.584C605.19 383.211 604.688 382.683 604.326 382C603.963 381.317 603.782 380.517 603.782 379.6ZM622.045 379.28C622.045 379.557 622.029 379.851 621.997 380.16H614.989C615.042 381.024 615.335 381.701 615.869 382.192C616.413 382.672 617.069 382.912 617.837 382.912C618.466 382.912 618.989 382.768 619.405 382.48C619.831 382.181 620.13 381.787 620.301 381.296H621.869C621.634 382.139 621.165 382.827 620.461 383.36C619.757 383.883 618.882 384.144 617.837 384.144C617.005 384.144 616.258 383.957 615.597 383.584C614.946 383.211 614.434 382.683 614.061 382C613.687 381.307 613.501 380.507 613.501 379.6C613.501 378.693 613.682 377.899 614.045 377.216C614.407 376.533 614.914 376.011 615.565 375.648C616.226 375.275 616.983 375.088 617.837 375.088C618.669 375.088 619.405 375.269 620.045 375.632C620.685 375.995 621.175 376.496 621.517 377.136C621.869 377.765 622.045 378.48 622.045 379.28ZM620.541 378.976C620.541 378.421 620.418 377.947 620.173 377.552C619.927 377.147 619.591 376.843 619.165 376.64C618.749 376.427 618.285 376.32 617.773 376.32C617.037 376.32 616.407 376.555 615.885 377.024C615.373 377.493 615.079 378.144 615.005 378.976H620.541ZM626.814 372.704C627.87 372.704 628.724 373.003 629.374 373.6C630.025 374.197 630.35 374.997 630.35 376C630.35 377.12 630.004 377.952 629.31 378.496C628.617 379.029 627.678 379.296 626.494 379.296L626.446 380.816H625.182L625.118 378.288H625.582C626.638 378.288 627.465 378.128 628.062 377.808C628.66 377.488 628.958 376.885 628.958 376C628.958 375.36 628.766 374.853 628.382 374.48C627.998 374.107 627.481 373.92 626.83 373.92C626.169 373.92 625.646 374.101 625.262 374.464C624.889 374.816 624.702 375.301 624.702 375.92H623.326C623.326 375.28 623.47 374.72 623.758 374.24C624.046 373.749 624.452 373.371 624.974 373.104C625.508 372.837 626.121 372.704 626.814 372.704ZM625.806 384.096C625.529 384.096 625.294 384 625.102 383.808C624.91 383.616 624.814 383.381 624.814 383.104C624.814 382.827 624.91 382.592 625.102 382.4C625.294 382.208 625.529 382.112 625.806 382.112C626.073 382.112 626.297 382.208 626.478 382.4C626.67 382.592 626.766 382.827 626.766 383.104C626.766 383.381 626.67 383.616 626.478 383.808C626.297 384 626.073 384.096 625.806 384.096Z" fill="white"/>
<path d="M22.096 279.848V281.032H19.056V291H17.6V281.032H14.544V279.848H22.096ZM28.2403 282.072C28.9016 282.072 29.4989 282.216 30.0323 282.504C30.5656 282.781 30.9816 283.203 31.2803 283.768C31.5896 284.333 31.7443 285.021 31.7443 285.832V291H30.3043V286.04C30.3043 285.165 30.0856 284.499 29.6483 284.04C29.2109 283.571 28.6136 283.336 27.8563 283.336C27.0883 283.336 26.4749 283.576 26.0163 284.056C25.5683 284.536 25.3443 285.235 25.3443 286.152V291H23.8883V279.16H25.3443V283.48C25.6323 283.032 26.0269 282.685 26.5283 282.44C27.0403 282.195 27.6109 282.072 28.2403 282.072ZM33.5786 286.584C33.5786 285.688 33.76 284.904 34.1226 284.232C34.4853 283.549 34.9813 283.021 35.6106 282.648C36.2506 282.275 36.96 282.088 37.7386 282.088C38.5066 282.088 39.1733 282.253 39.7386 282.584C40.304 282.915 40.7253 283.331 41.0026 283.832V282.232H42.4746V291H41.0026V289.368C40.7146 289.88 40.2826 290.307 39.7066 290.648C39.1413 290.979 38.48 291.144 37.7226 291.144C36.944 291.144 36.24 290.952 35.6106 290.568C34.9813 290.184 34.4853 289.645 34.1226 288.952C33.76 288.259 33.5786 287.469 33.5786 286.584ZM41.0026 286.6C41.0026 285.939 40.8693 285.363 40.6026 284.872C40.336 284.381 39.9733 284.008 39.5146 283.752C39.0666 283.485 38.5706 283.352 38.0266 283.352C37.4826 283.352 36.9866 283.48 36.5386 283.736C36.0906 283.992 35.7333 284.365 35.4666 284.856C35.2 285.347 35.0666 285.923 35.0666 286.584C35.0666 287.256 35.2 287.843 35.4666 288.344C35.7333 288.835 36.0906 289.213 36.5386 289.48C36.9866 289.736 37.4826 289.864 38.0266 289.864C38.5706 289.864 39.0666 289.736 39.5146 289.48C39.9733 289.213 40.336 288.835 40.6026 288.344C40.8693 287.843 41.0026 287.261 41.0026 286.6ZM49.2071 282.072C50.2738 282.072 51.1378 282.397 51.7991 283.048C52.4605 283.688 52.7911 284.616 52.7911 285.832V291H51.3511V286.04C51.3511 285.165 51.1325 284.499 50.6951 284.04C50.2578 283.571 49.6605 283.336 48.9031 283.336C48.1351 283.336 47.5218 283.576 47.0631 284.056C46.6151 284.536 46.3911 285.235 46.3911 286.152V291H44.9351V282.232H46.3911V283.48C46.6791 283.032 47.0685 282.685 47.5591 282.44C48.0605 282.195 48.6098 282.072 49.2071 282.072ZM60.0655 291L56.6255 287.128V291H55.1695V279.16H56.6255V286.12L60.0015 282.232H62.0335L57.9055 286.6L62.0495 291H60.0655ZM75.2215 282.232L69.9415 295.128H68.4375L70.1655 290.904L66.6295 282.232H68.2455L70.9975 289.336L73.7175 282.232H75.2215ZM80.5091 291.144C79.6878 291.144 78.9411 290.957 78.2691 290.584C77.6078 290.211 77.0851 289.683 76.7011 289C76.3278 288.307 76.1411 287.507 76.1411 286.6C76.1411 285.704 76.3331 284.915 76.7171 284.232C77.1118 283.539 77.6451 283.011 78.3171 282.648C78.9891 282.275 79.7411 282.088 80.5731 282.088C81.4051 282.088 82.1571 282.275 82.8291 282.648C83.5011 283.011 84.0291 283.533 84.4131 284.216C84.8078 284.899 85.0051 285.693 85.0051 286.6C85.0051 287.507 84.8025 288.307 84.3971 289C84.0025 289.683 83.4638 290.211 82.7811 290.584C82.0985 290.957 81.3411 291.144 80.5091 291.144ZM80.5091 289.864C81.0318 289.864 81.5225 289.741 81.9811 289.496C82.4398 289.251 82.8078 288.883 83.0851 288.392C83.3731 287.901 83.5171 287.304 83.5171 286.6C83.5171 285.896 83.3785 285.299 83.1011 284.808C82.8238 284.317 82.4611 283.955 82.0131 283.72C81.5651 283.475 81.0798 283.352 80.5571 283.352C80.0238 283.352 79.5331 283.475 79.0851 283.72C78.6478 283.955 78.2958 284.317 78.0291 284.808C77.7625 285.299 77.6291 285.896 77.6291 286.6C77.6291 287.315 77.7571 287.917 78.0131 288.408C78.2798 288.899 78.6318 289.267 79.0691 289.512C79.5065 289.747 79.9865 289.864 80.5091 289.864ZM94.6955 282.232V291H93.2395V289.704C92.9622 290.152 92.5728 290.504 92.0715 290.76C91.5808 291.005 91.0368 291.128 90.4395 291.128C89.7568 291.128 89.1435 290.989 88.5995 290.712C88.0555 290.424 87.6235 289.997 87.3035 289.432C86.9942 288.867 86.8395 288.179 86.8395 287.368V282.232H88.2795V287.176C88.2795 288.04 88.4982 288.707 88.9355 289.176C89.3728 289.635 89.9702 289.864 90.7275 289.864C91.5062 289.864 92.1195 289.624 92.5675 289.144C93.0155 288.664 93.2395 287.965 93.2395 287.048V282.232H94.6955Z" fill="#333333"/>
</svg>
