<svg width="645" height="54" viewBox="0 0 645 54" fill="none" xmlns="http://www.w3.org/2000/svg">
<path d="M608.9 16.1992L631.1 27.1492L608.9 38.2492L613.4 27.1492L608.9 16.1992Z" stroke="white" stroke-width="1.5" stroke-miterlimit="10" stroke-linejoin="round"/>
<path d="M26.985 11C18.705 11 12 17.72 12 26C12 34.28 18.705 41 26.985 41C35.28 41 42 34.28 42 26C42 17.72 35.28 11 26.985 11ZM27 38C20.37 38 15 32.63 15 26C15 19.37 20.37 14 27 14C33.63 14 39 19.37 39 26C39 32.63 33.63 38 27 38ZM32.25 24.5C33.495 24.5 34.5 23.495 34.5 22.25C34.5 21.005 33.495 20 32.25 20C31.005 20 30 21.005 30 22.25C30 23.495 31.005 24.5 32.25 24.5ZM21.75 24.5C22.995 24.5 24 23.495 24 22.25C24 21.005 22.995 20 21.75 20C20.505 20 19.5 21.005 19.5 22.25C19.5 23.495 20.505 24.5 21.75 24.5ZM27 34.25C30.495 34.25 33.465 32.06 34.665 29H19.335C20.535 32.06 23.505 34.25 27 34.25Z" fill="#797C83"/>
<rect x="0.5" y="0.5" width="644" height="53" rx="26.5" fill="white" stroke="#B5B5B5"/>
<path d="M62.3604 22.242V23.278H59.7004V32H58.4264V23.278H55.7524V22.242H62.3604ZM70.5366 24.328L65.9166 35.612H64.6006L66.1126 31.916L63.0186 24.328H64.4326L66.8406 30.544L69.2206 24.328H70.5366ZM73.0913 25.742C73.3433 25.3033 73.7166 24.9393 74.2113 24.65C74.7153 24.3513 75.2986 24.202 75.9613 24.202C76.6426 24.202 77.2586 24.3653 77.8093 24.692C78.3693 25.0187 78.8079 25.4807 79.1253 26.078C79.4426 26.666 79.6013 27.352 79.6013 28.136C79.6013 28.9107 79.4426 29.6013 79.1253 30.208C78.8079 30.8147 78.3693 31.286 77.8093 31.622C77.2586 31.958 76.6426 32.126 75.9613 32.126C75.3079 32.126 74.7293 31.9813 74.2253 31.692C73.7306 31.3933 73.3526 31.0247 73.0913 30.586V35.64H71.8173V24.328H73.0913V25.742ZM78.2993 28.136C78.2993 27.5573 78.1826 27.0533 77.9493 26.624C77.7159 26.1947 77.3986 25.868 76.9973 25.644C76.6053 25.42 76.1713 25.308 75.6953 25.308C75.2286 25.308 74.7946 25.4247 74.3933 25.658C74.0013 25.882 73.6839 26.2133 73.4413 26.652C73.2079 27.0813 73.0913 27.5807 73.0913 28.15C73.0913 28.7287 73.2079 29.2373 73.4413 29.676C73.6839 30.1053 74.0013 30.4367 74.3933 30.67C74.7946 30.894 75.2286 31.006 75.6953 31.006C76.1713 31.006 76.6053 30.894 76.9973 30.67C77.3986 30.4367 77.7159 30.1053 77.9493 29.676C78.1826 29.2373 78.2993 28.724 78.2993 28.136ZM88.2782 27.87C88.2782 28.1127 88.2642 28.3693 88.2362 28.64H82.1042C82.1509 29.396 82.4075 29.9887 82.8742 30.418C83.3502 30.838 83.9242 31.048 84.5962 31.048C85.1469 31.048 85.6042 30.922 85.9682 30.67C86.3415 30.4087 86.6029 30.0633 86.7522 29.634H88.1242C87.9189 30.3713 87.5082 30.9733 86.8922 31.44C86.2762 31.8973 85.5109 32.126 84.5962 32.126C83.8682 32.126 83.2149 31.9627 82.6362 31.636C82.0669 31.3093 81.6189 30.8473 81.2922 30.25C80.9655 29.6433 80.8022 28.9433 80.8022 28.15C80.8022 27.3567 80.9609 26.6613 81.2782 26.064C81.5955 25.4667 82.0389 25.0093 82.6082 24.692C83.1869 24.3653 83.8495 24.202 84.5962 24.202C85.3242 24.202 85.9682 24.3607 86.5282 24.678C87.0882 24.9953 87.5175 25.434 87.8162 25.994C88.1242 26.5447 88.2782 27.17 88.2782 27.87ZM86.9622 27.604C86.9622 27.1187 86.8549 26.7033 86.6402 26.358C86.4255 26.0033 86.1315 25.7373 85.7582 25.56C85.3942 25.3733 84.9882 25.28 84.5402 25.28C83.8962 25.28 83.3455 25.4853 82.8882 25.896C82.4402 26.3067 82.1835 26.876 82.1182 27.604H86.9622ZM96.4083 32.126C95.8203 32.126 95.2929 32.028 94.8263 31.832C94.3596 31.6267 93.9909 31.3467 93.7203 30.992C93.4496 30.628 93.3003 30.2127 93.2723 29.746H94.5883C94.6256 30.1287 94.8029 30.4413 95.1203 30.684C95.4469 30.9267 95.8716 31.048 96.3943 31.048C96.8796 31.048 97.2623 30.9407 97.5423 30.726C97.8223 30.5113 97.9623 30.2407 97.9623 29.914C97.9623 29.578 97.8129 29.3307 97.5143 29.172C97.2156 29.004 96.7536 28.8407 96.1283 28.682C95.5589 28.5327 95.0923 28.3833 94.7283 28.234C94.3736 28.0753 94.0656 27.8467 93.8043 27.548C93.5523 27.24 93.4263 26.8387 93.4263 26.344C93.4263 25.952 93.5429 25.5927 93.7763 25.266C94.0096 24.9393 94.3409 24.6827 94.7703 24.496C95.1996 24.3 95.6896 24.202 96.2403 24.202C97.0896 24.202 97.7756 24.4167 98.2983 24.846C98.8209 25.2753 99.1009 25.8633 99.1383 26.61H97.8643C97.8363 26.2087 97.6729 25.8867 97.3743 25.644C97.0849 25.4013 96.6929 25.28 96.1983 25.28C95.7409 25.28 95.3769 25.378 95.1063 25.574C94.8356 25.77 94.7003 26.0267 94.7003 26.344C94.7003 26.596 94.7796 26.806 94.9383 26.974C95.1063 27.1327 95.3116 27.2633 95.5543 27.366C95.8063 27.4593 96.1516 27.5667 96.5903 27.688C97.1409 27.8373 97.5889 27.9867 97.9343 28.136C98.2796 28.276 98.5736 28.4907 98.8163 28.78C99.0683 29.0693 99.1989 29.4473 99.2083 29.914C99.2083 30.334 99.0916 30.712 98.8583 31.048C98.6249 31.384 98.2936 31.65 97.8643 31.846C97.4443 32.0327 96.9589 32.126 96.4083 32.126ZM104.353 32.126C103.634 32.126 102.981 31.9627 102.393 31.636C101.814 31.3093 101.357 30.8473 101.021 30.25C100.694 29.6433 100.531 28.9433 100.531 28.15C100.531 27.366 100.699 26.6753 101.035 26.078C101.38 25.4713 101.847 25.0093 102.435 24.692C103.023 24.3653 103.681 24.202 104.409 24.202C105.137 24.202 105.795 24.3653 106.383 24.692C106.971 25.0093 107.433 25.4667 107.769 26.064C108.114 26.6613 108.287 27.3567 108.287 28.15C108.287 28.9433 108.109 29.6433 107.755 30.25C107.409 30.8473 106.938 31.3093 106.341 31.636C105.743 31.9627 105.081 32.126 104.353 32.126ZM104.353 31.006C104.81 31.006 105.239 30.8987 105.641 30.684C106.042 30.4693 106.364 30.1473 106.607 29.718C106.859 29.2887 106.985 28.766 106.985 28.15C106.985 27.534 106.863 27.0113 106.621 26.582C106.378 26.1527 106.061 25.8353 105.669 25.63C105.277 25.4153 104.852 25.308 104.395 25.308C103.928 25.308 103.499 25.4153 103.107 25.63C102.724 25.8353 102.416 26.1527 102.183 26.582C101.949 27.0113 101.833 27.534 101.833 28.15C101.833 28.7753 101.945 29.3027 102.169 29.732C102.402 30.1613 102.71 30.4833 103.093 30.698C103.475 30.9033 103.895 31.006 104.353 31.006ZM119.188 24.188C119.785 24.188 120.317 24.314 120.784 24.566C121.25 24.8087 121.619 25.1773 121.89 25.672C122.16 26.1667 122.296 26.7687 122.296 27.478V32H121.036V27.66C121.036 26.8947 120.844 26.3113 120.462 25.91C120.088 25.4993 119.58 25.294 118.936 25.294C118.273 25.294 117.746 25.5087 117.354 25.938C116.962 26.358 116.766 26.9693 116.766 27.772V32H115.506V27.66C115.506 26.8947 115.314 26.3113 114.932 25.91C114.558 25.4993 114.05 25.294 113.406 25.294C112.743 25.294 112.216 25.5087 111.824 25.938C111.432 26.358 111.236 26.9693 111.236 27.772V32H109.962V24.328H111.236V25.434C111.488 25.0327 111.824 24.7247 112.244 24.51C112.673 24.2953 113.144 24.188 113.658 24.188C114.302 24.188 114.871 24.3327 115.366 24.622C115.86 24.9113 116.229 25.336 116.472 25.896C116.686 25.3547 117.041 24.9347 117.536 24.636C118.03 24.3373 118.581 24.188 119.188 24.188ZM131.386 27.87C131.386 28.1127 131.372 28.3693 131.344 28.64H125.212C125.258 29.396 125.515 29.9887 125.982 30.418C126.458 30.838 127.032 31.048 127.704 31.048C128.254 31.048 128.712 30.922 129.076 30.67C129.449 30.4087 129.71 30.0633 129.86 29.634H131.232C131.026 30.3713 130.616 30.9733 130 31.44C129.384 31.8973 128.618 32.126 127.704 32.126C126.976 32.126 126.322 31.9627 125.744 31.636C125.174 31.3093 124.726 30.8473 124.4 30.25C124.073 29.6433 123.91 28.9433 123.91 28.15C123.91 27.3567 124.068 26.6613 124.386 26.064C124.703 25.4667 125.146 25.0093 125.716 24.692C126.294 24.3653 126.957 24.202 127.704 24.202C128.432 24.202 129.076 24.3607 129.636 24.678C130.196 24.9953 130.625 25.434 130.924 25.994C131.232 26.5447 131.386 27.17 131.386 27.87ZM130.07 27.604C130.07 27.1187 129.962 26.7033 129.748 26.358C129.533 26.0033 129.239 25.7373 128.866 25.56C128.502 25.3733 128.096 25.28 127.648 25.28C127.004 25.28 126.453 25.4853 125.996 25.896C125.548 26.3067 125.291 26.876 125.226 27.604H130.07ZM134.621 25.378V29.9C134.621 30.2733 134.701 30.5393 134.859 30.698C135.018 30.8473 135.293 30.922 135.685 30.922H136.623V32H135.475C134.766 32 134.234 31.8367 133.879 31.51C133.525 31.1833 133.347 30.6467 133.347 29.9V25.378H132.353V24.328H133.347V22.396H134.621V24.328H136.623V25.378H134.621ZM141.975 24.188C142.554 24.188 143.076 24.314 143.543 24.566C144.01 24.8087 144.374 25.1773 144.635 25.672C144.906 26.1667 145.041 26.7687 145.041 27.478V32H143.781V27.66C143.781 26.8947 143.59 26.3113 143.207 25.91C142.824 25.4993 142.302 25.294 141.639 25.294C140.967 25.294 140.43 25.504 140.029 25.924C139.637 26.344 139.441 26.9553 139.441 27.758V32H138.167V21.64H139.441V25.42C139.693 25.028 140.038 24.7247 140.477 24.51C140.925 24.2953 141.424 24.188 141.975 24.188ZM147.78 23.082C147.537 23.082 147.332 22.998 147.164 22.83C146.996 22.662 146.912 22.4567 146.912 22.214C146.912 21.9713 146.996 21.766 147.164 21.598C147.332 21.43 147.537 21.346 147.78 21.346C148.013 21.346 148.209 21.43 148.368 21.598C148.536 21.766 148.62 21.9713 148.62 22.214C148.62 22.4567 148.536 22.662 148.368 22.83C148.209 22.998 148.013 23.082 147.78 23.082ZM148.396 24.328V32H147.122V24.328H148.396ZM154.305 24.188C155.239 24.188 155.995 24.4727 156.573 25.042C157.152 25.602 157.441 26.414 157.441 27.478V32H156.181V27.66C156.181 26.8947 155.99 26.3113 155.607 25.91C155.225 25.4993 154.702 25.294 154.039 25.294C153.367 25.294 152.831 25.504 152.429 25.924C152.037 26.344 151.841 26.9553 151.841 27.758V32H150.567V24.328H151.841V25.42C152.093 25.028 152.434 24.7247 152.863 24.51C153.302 24.2953 153.783 24.188 154.305 24.188ZM162.686 24.202C163.349 24.202 163.928 24.3467 164.422 24.636C164.926 24.9253 165.3 25.2893 165.542 25.728V24.328H166.83V32.168C166.83 32.868 166.681 33.4887 166.382 34.03C166.084 34.5807 165.654 35.01 165.094 35.318C164.544 35.626 163.9 35.78 163.162 35.78C162.154 35.78 161.314 35.542 160.642 35.066C159.97 34.59 159.574 33.9413 159.452 33.12H160.712C160.852 33.5867 161.142 33.96 161.58 34.24C162.019 34.5293 162.546 34.674 163.162 34.674C163.862 34.674 164.432 34.4547 164.87 34.016C165.318 33.5773 165.542 32.9613 165.542 32.168V30.558C165.29 31.006 164.917 31.3793 164.422 31.678C163.928 31.9767 163.349 32.126 162.686 32.126C162.005 32.126 161.384 31.958 160.824 31.622C160.274 31.286 159.84 30.8147 159.522 30.208C159.205 29.6013 159.046 28.9107 159.046 28.136C159.046 27.352 159.205 26.666 159.522 26.078C159.84 25.4807 160.274 25.0187 160.824 24.692C161.384 24.3653 162.005 24.202 162.686 24.202ZM165.542 28.15C165.542 27.5713 165.426 27.0673 165.192 26.638C164.959 26.2087 164.642 25.882 164.24 25.658C163.848 25.4247 163.414 25.308 162.938 25.308C162.462 25.308 162.028 25.42 161.636 25.644C161.244 25.868 160.932 26.1947 160.698 26.624C160.465 27.0533 160.348 27.5573 160.348 28.136C160.348 28.724 160.465 29.2373 160.698 29.676C160.932 30.1053 161.244 30.4367 161.636 30.67C162.028 30.894 162.462 31.006 162.938 31.006C163.414 31.006 163.848 30.894 164.24 30.67C164.642 30.4367 164.959 30.1053 165.192 29.676C165.426 29.2373 165.542 28.7287 165.542 28.15ZM169.389 32.084C169.147 32.084 168.941 32 168.773 31.832C168.605 31.664 168.521 31.4587 168.521 31.216C168.521 30.9733 168.605 30.768 168.773 30.6C168.941 30.432 169.147 30.348 169.389 30.348C169.623 30.348 169.819 30.432 169.977 30.6C170.145 30.768 170.229 30.9733 170.229 31.216C170.229 31.4587 170.145 31.664 169.977 31.832C169.819 32 169.623 32.084 169.389 32.084ZM172.329 32.084C172.086 32.084 171.881 32 171.713 31.832C171.545 31.664 171.461 31.4587 171.461 31.216C171.461 30.9733 171.545 30.768 171.713 30.6C171.881 30.432 172.086 30.348 172.329 30.348C172.562 30.348 172.758 30.432 172.917 30.6C173.085 30.768 173.169 30.9733 173.169 31.216C173.169 31.4587 173.085 31.664 172.917 31.832C172.758 32 172.562 32.084 172.329 32.084ZM175.268 32.084C175.026 32.084 174.82 32 174.652 31.832C174.484 31.664 174.4 31.4587 174.4 31.216C174.4 30.9733 174.484 30.768 174.652 30.6C174.82 30.432 175.026 30.348 175.268 30.348C175.502 30.348 175.698 30.432 175.856 30.6C176.024 30.768 176.108 30.9733 176.108 31.216C176.108 31.4587 176.024 31.664 175.856 31.832C175.698 32 175.502 32.084 175.268 32.084Z" fill="#797C83"/>
<circle cx="618" cy="27" r="24" fill="#337AB7"/>
<path d="M628.006 23.7796L611.207 15.3772C610.544 15.0471 609.795 14.9296 609.063 15.0407C608.331 15.1518 607.651 15.4861 607.115 15.9979C606.58 16.5098 606.216 17.1744 606.072 17.9011C605.928 18.6278 606.011 19.3812 606.311 20.0586L609.191 26.5044C609.256 26.6603 609.29 26.8276 609.29 26.9966C609.29 27.1656 609.256 27.3329 609.191 27.4887L606.311 33.9345C606.067 34.4828 605.964 35.0833 606.011 35.6815C606.058 36.2797 606.254 36.8567 606.581 37.36C606.907 37.8633 607.354 38.2769 607.882 38.5633C608.409 38.8498 608.999 38.9999 609.599 39C610.161 38.9944 610.714 38.8632 611.219 38.6159L628.018 30.2135C628.614 29.9136 629.115 29.454 629.465 28.886C629.815 28.318 630 27.6638 630 26.9966C630 26.3293 629.815 25.6752 629.465 25.1071C629.115 24.5391 628.614 24.0795 628.018 23.7796H628.006ZM626.938 28.0649L610.139 36.4673C609.918 36.5732 609.671 36.6092 609.429 36.5703C609.187 36.5315 608.963 36.4196 608.787 36.2498C608.611 36.08 608.491 35.8604 608.443 35.6203C608.395 35.3803 608.421 35.1313 608.519 34.9068L611.387 28.461C611.424 28.3749 611.456 28.2867 611.483 28.1969H619.75C620.069 28.1969 620.374 28.0704 620.599 27.8453C620.824 27.6202 620.95 27.3149 620.95 26.9966C620.95 26.6782 620.824 26.3729 620.599 26.1478C620.374 25.9227 620.069 25.7962 619.75 25.7962H611.483C611.456 25.7064 611.424 25.6182 611.387 25.5321L608.519 19.0863C608.421 18.8618 608.395 18.6128 608.443 18.3728C608.491 18.1327 608.611 17.9131 608.787 17.7433C608.963 17.5735 609.187 17.4617 609.429 17.4228C609.671 17.3839 609.918 17.4199 610.139 17.5258L626.938 25.9283C627.135 26.029 627.299 26.182 627.415 26.3705C627.53 26.559 627.591 26.7756 627.591 26.9966C627.591 27.2175 627.53 27.4341 627.415 27.6226C627.299 27.8111 627.135 27.9641 626.938 28.0649V28.0649Z" fill="white"/>
<path d="M26.985 11C18.705 11 12 17.72 12 26C12 34.28 18.705 41 26.985 41C35.28 41 42 34.28 42 26C42 17.72 35.28 11 26.985 11ZM27 38C20.37 38 15 32.63 15 26C15 19.37 20.37 14 27 14C33.63 14 39 19.37 39 26C39 32.63 33.63 38 27 38ZM32.25 24.5C33.495 24.5 34.5 23.495 34.5 22.25C34.5 21.005 33.495 20 32.25 20C31.005 20 30 21.005 30 22.25C30 23.495 31.005 24.5 32.25 24.5ZM21.75 24.5C22.995 24.5 24 23.495 24 22.25C24 21.005 22.995 20 21.75 20C20.505 20 19.5 21.005 19.5 22.25C19.5 23.495 20.505 24.5 21.75 24.5ZM27 34.25C30.495 34.25 33.465 32.06 34.665 29H19.335C20.535 32.06 23.505 34.25 27 34.25Z" fill="#797C83"/>
</svg>
